<svg width="36" height="36" viewBox="0 0 36 36" fill="none" xmlns="http://www.w3.org/2000/svg">
<path d="M22 2L24.0188 6.46578L28 3.6077L27.5154 8.48457L32.3923 8L29.5342 11.9812L34 14L29.5342 16.0188L32.3923 20L27.5154 19.5154L28 24.3923L24.0188 21.5342L22 26L19.1262 16.8738L10 14L14.4658 11.9812L11.6077 8L16.4846 8.48457L16 3.6077L19.9812 6.46578L22 2Z" fill="#E850FF"/>
<path d="M22 7L23.1776 9.60504L25.5 7.93782L25.2173 10.7827L28.0622 10.5L26.395 12.8224L29 14L26.395 15.1776L28.0622 17.5L25.2173 17.2173L25.5 20.0622L23.1776 18.395L22 21L20.3236 15.6764L15 14L17.605 12.8224L15.9378 10.5L18.7827 10.7827L18.5 7.93782L20.8224 9.60504L22 7Z" fill="#BD17BD"/>
<path fill-rule="evenodd" clip-rule="evenodd" d="M23.591 12.409C24.4697 13.2877 24.4697 14.7123 23.591 15.591L5.59099 33.591C4.71231 34.4697 3.28769 34.4697 2.40901 33.591C1.53033 32.7123 1.53033 31.2877 2.40901 30.409L20.409 12.409C21.2877 11.5303 22.7123 11.5303 23.591 12.409Z" fill="#43474A"/>
<path fill-rule="evenodd" clip-rule="evenodd" d="M23.591 12.409C24.4697 13.2877 24.4697 14.7123 23.591 15.591L17.591 21.591C16.7123 22.4697 15.2877 22.4697 14.409 21.591C13.5303 20.7123 13.5303 19.2877 14.409 18.409L20.409 12.409C21.2877 11.5303 22.7123 11.5303 23.591 12.409Z" fill="url(#paint0_linear_486_15088)"/>
<defs>
<linearGradient id="paint0_linear_486_15088" x1="22" y1="14" x2="16" y2="20" gradientUnits="userSpaceOnUse">
<stop stop-color="#F9D700"/>
<stop offset="1" stop-color="#F9930A"/>
</linearGradient>
</defs>
</svg>
