<svg width="36" height="36" viewBox="0 0 36 36" fill="none" xmlns="http://www.w3.org/2000/svg">
<path d="M7.23073 25.3073L5.52776 8.27762C5.34488 6.44886 5.25344 5.53448 5.5535 4.82768C5.81706 4.20684 6.28215 3.69293 6.87368 3.36889C7.54711 3 8.46605 3 10.3039 3H25.6961C27.5339 3 28.4529 3 29.1263 3.36889C29.7178 3.69293 30.1829 4.20684 30.4465 4.82768C30.7466 5.53448 30.6551 6.44886 30.4722 8.27762L28.7693 25.3073C28.6711 26.2894 28.622 26.7805 28.4373 27.208C28.2739 27.5864 28.0343 27.927 27.7334 28.2087C27.3935 28.5269 26.9479 28.7391 26.0568 29.1634L20.0637 32.0173C19.3056 32.3783 18.9265 32.5588 18.5305 32.6299C18.1796 32.693 17.8204 32.693 17.4695 32.6299C17.0735 32.5588 16.6944 32.3783 15.9363 32.0173L9.94323 29.1634C9.05213 28.7391 8.60654 28.5269 8.26657 28.2087C7.9657 27.927 7.72609 27.5864 7.56269 27.208C7.37805 26.7805 7.32894 26.2894 7.23073 25.3073Z" fill="#F7A115"/>
<path fill-rule="evenodd" clip-rule="evenodd" d="M10.2513 1.75H25.7488C26.6228 1.74998 27.3567 1.74996 27.9535 1.80059C28.5754 1.85333 29.1713 1.96827 29.7269 2.2726C30.5649 2.73165 31.2237 3.45969 31.5971 4.33922C31.8447 4.9223 31.8997 5.52669 31.8903 6.15073C31.8813 6.74962 31.8083 7.47984 31.7213 8.34956L30.0131 25.4317C30.0078 25.4842 30.0027 25.5361 29.9976 25.5874C29.9155 26.4161 29.8484 27.0935 29.5849 27.7036C29.3534 28.2396 29.0139 28.7222 28.5877 29.1212C28.1025 29.5754 27.4877 29.8675 26.7354 30.2249C26.6889 30.247 26.6418 30.2694 26.5942 30.292L20.6011 33.1459C20.5609 33.165 20.5212 33.1839 20.482 33.2027C19.841 33.5085 19.3166 33.7587 18.7515 33.8603C18.2545 33.9496 17.7455 33.9496 17.2485 33.8603C16.6834 33.7587 16.159 33.5085 15.5181 33.2027C15.4788 33.1839 15.4391 33.165 15.3989 33.1459L9.40583 30.292C9.35823 30.2694 9.31116 30.247 9.26462 30.2249C8.51238 29.8675 7.8975 29.5754 7.41231 29.1212C6.98608 28.7222 6.64664 28.2396 6.41515 27.7036C6.15165 27.0935 6.08453 26.4161 6.00242 25.5874C5.99734 25.5361 5.9922 25.4842 5.98695 25.4317L4.27873 8.34957C4.19174 7.47984 4.1187 6.74963 4.10969 6.15073C4.10029 5.52669 4.15537 4.92231 4.4029 4.33922C4.77629 3.45969 5.43516 2.73165 6.27317 2.2726C6.82873 1.96827 7.42464 1.85333 8.04651 1.80059C8.64333 1.74996 9.37719 1.74998 10.2513 1.75ZM8.2578 4.29164C7.79237 4.33112 7.5921 4.40062 7.47423 4.46519C7.12917 4.65421 6.85787 4.95399 6.70412 5.31615C6.6516 5.43985 6.60237 5.64605 6.6094 6.1131C6.61663 6.59328 6.67798 7.21733 6.77157 8.15324L8.47454 25.183C8.58093 26.2469 8.62078 26.5052 8.71026 26.7124C8.80557 26.9331 8.94535 27.1318 9.12085 27.2961C9.2856 27.4504 9.51532 27.5752 10.4807 28.0349L16.4737 30.8887C17.294 31.2793 17.4982 31.3651 17.6905 31.3996C17.8952 31.4364 18.1048 31.4364 18.3095 31.3997C18.5018 31.3651 18.706 31.2793 19.5263 30.8887L25.5194 28.0349C26.4847 27.5752 26.7144 27.4504 26.8792 27.2961C27.0547 27.1318 27.1944 26.9331 27.2898 26.7124C27.3792 26.5052 27.4191 26.2469 27.5255 25.183L29.2285 8.15324C29.322 7.21733 29.3834 6.59328 29.3906 6.1131C29.3977 5.64606 29.3484 5.43986 29.2959 5.31615C29.1422 4.95399 28.8709 4.65421 28.5258 4.46519C28.4079 4.40062 28.2076 4.33112 27.7422 4.29164C27.2637 4.25105 26.6366 4.25 25.6961 4.25H10.304C9.36337 4.25 8.73632 4.25105 8.2578 4.29164Z" fill="url(#paint0_linear_249_25957)"/>
<path d="M18 3V32.6772C17.8225 32.6772 17.6449 32.6615 17.4695 32.6299C17.0735 32.5588 16.6944 32.3783 15.9363 32.0173L9.94323 29.1634C9.05213 28.7391 8.60654 28.5269 8.26657 28.2087C7.9657 27.927 7.72609 27.5864 7.56269 27.208C7.37804 26.7805 7.32894 26.2894 7.23073 25.3073L5.52776 8.27762C5.34488 6.44886 5.25344 5.53448 5.5535 4.82768C5.81706 4.20684 6.28215 3.69293 6.87368 3.36889C7.54711 3 8.46605 3 10.3039 3H18Z" fill="url(#paint1_linear_249_25957)"/>
<path d="M10.0525 7.75H25.9475L25.5725 11.25H13.9475L14.2154 13.75H25.3047L24.1326 24.6895L18 27.4151L11.8674 24.6895L11.2311 18.75H14.7511L15.1326 22.3105L18 23.5849L20.8674 22.3105L21.4096 17.25H11.0703L10.0525 7.75Z" fill="white"/>
<path fill-rule="evenodd" clip-rule="evenodd" d="M27.9697 27.9697C28.2626 27.6768 28.7374 27.6768 29.0303 27.9697L33.0303 31.9697C33.3232 32.2626 33.3232 32.7375 33.0303 33.0303C32.7374 33.3232 32.2626 33.3232 31.9697 33.0303L27.9697 29.0303C27.6768 28.7375 27.6768 28.2626 27.9697 27.9697Z" fill="#3AC3F4"/>
<path fill-rule="evenodd" clip-rule="evenodd" d="M27.9697 27.9697C28.2626 27.6768 28.7374 27.6768 29.0303 27.9697L33.0303 31.9697C33.3232 32.2626 33.3232 32.7375 33.0303 33.0303C32.7374 33.3232 32.2626 33.3232 31.9697 33.0303L27.9697 29.0303C27.6768 28.7375 27.6768 28.2626 27.9697 27.9697Z" fill="url(#paint2_radial_249_25957)" fill-opacity="0.5" style="mix-blend-mode:overlay"/>
<path fill-rule="evenodd" clip-rule="evenodd" d="M30.4697 30.4697C30.7626 30.1768 31.2374 30.1768 31.5303 30.4697L33.0303 31.9697C33.3232 32.2626 33.3232 32.7374 33.0303 33.0303C32.7374 33.3232 32.2626 33.3232 31.9697 33.0303L30.4697 31.5303C30.1768 31.2374 30.1768 30.7626 30.4697 30.4697Z" fill="#199BE1"/>
<path d="M25 30.5C28.0376 30.5 30.5 28.0376 30.5 25C30.5 21.9624 28.0376 19.5 25 19.5C21.9624 19.5 19.5 21.9624 19.5 25C19.5 28.0376 21.9624 30.5 25 30.5Z" fill="url(#paint3_linear_249_25957)"/>
<path fill-rule="evenodd" clip-rule="evenodd" d="M18.75 25C18.75 21.5482 21.5482 18.75 25 18.75C28.4518 18.75 31.25 21.5482 31.25 25C31.25 28.4518 28.4518 31.25 25 31.25C21.5482 31.25 18.75 28.4518 18.75 25ZM25 20.25C22.3767 20.25 20.25 22.3767 20.25 25C20.25 27.6233 22.3767 29.75 25 29.75C27.6233 29.75 29.75 27.6233 29.75 25C29.75 22.3767 27.6233 20.25 25 20.25Z" fill="url(#paint4_linear_249_25957)"/>
<defs>
<linearGradient id="paint0_linear_249_25957" x1="18" y1="3" x2="18" y2="32.5" gradientUnits="userSpaceOnUse">
<stop stop-color="#F18C13"/>
<stop offset="1" stop-color="#E66202"/>
</linearGradient>
<linearGradient id="paint1_linear_249_25957" x1="11.6794" y1="3" x2="11.6794" y2="32.1826" gradientUnits="userSpaceOnUse">
<stop stop-color="#F18C13"/>
<stop offset="1" stop-color="#E66202"/>
</linearGradient>
<radialGradient id="paint2_radial_249_25957" cx="0" cy="0" r="1" gradientUnits="userSpaceOnUse" gradientTransform="translate(28.6667 28.8889) rotate(35.5377) scale(1.91163)">
<stop/>
<stop offset="1" stop-opacity="0"/>
</radialGradient>
<linearGradient id="paint3_linear_249_25957" x1="25" y1="19.5" x2="25" y2="30.5" gradientUnits="userSpaceOnUse">
<stop stop-color="#A9FCFA"/>
<stop offset="1" stop-color="#64DDFE"/>
</linearGradient>
<linearGradient id="paint4_linear_249_25957" x1="25" y1="19.5" x2="25" y2="30.5" gradientUnits="userSpaceOnUse">
<stop stop-color="#B0C6DA"/>
<stop offset="1" stop-color="#83A3C1"/>
</linearGradient>
</defs>
</svg>
