<svg width="36" height="36" viewBox="0 0 36 36" fill="none" xmlns="http://www.w3.org/2000/svg">
<path fill-rule="evenodd" clip-rule="evenodd" d="M31.25 7.75015V28.2499C31.25 29.0475 31.25 29.7207 31.205 30.2722C31.1578 30.8497 31.055 31.403 30.7868 31.9295C30.3793 32.7291 29.7291 33.3793 28.9295 33.7868C28.403 34.055 27.8497 34.1578 27.2722 34.205C26.7207 34.25 26.0475 34.25 25.2499 34.25H10.7501C9.95252 34.25 9.27932 34.25 8.72782 34.205C8.15026 34.1578 7.59699 34.055 7.07054 33.7868C6.27085 33.3793 5.62068 32.7291 5.21322 31.9295C4.94498 31.403 4.84221 30.8497 4.79503 30.2722C4.74996 29.7207 4.74998 29.0475 4.75 28.2499L4.75 7.75012C4.74998 6.95252 4.74997 6.27932 4.79503 5.72782C4.84221 5.15026 4.94498 4.59699 5.21322 4.07054C5.62069 3.27085 6.27085 2.62069 7.07054 2.21322C7.59699 1.94498 8.15026 1.84221 8.72782 1.79503C9.27933 1.74997 9.95254 1.74998 10.7502 1.75L25.2499 1.75C26.0475 1.74998 26.7207 1.74997 27.2722 1.79503C27.8497 1.84221 28.403 1.94498 28.9295 2.21322C29.7292 2.62069 30.3793 3.27085 30.7868 4.07054C31.055 4.597 31.1578 5.15026 31.205 5.72782C31.25 6.27933 31.25 6.95254 31.25 7.75015Z" fill="url(#paint0_linear_304_12586)"/>
<path d="M12.3725 11.705C12.3725 12.005 12.3825 12.37 12.4025 12.8C12.4225 13.22 12.4825 13.63 12.5825 14.03C12.6925 14.42 12.8625 14.755 13.0925 15.035C13.3225 15.315 13.6525 15.455 14.0825 15.455C14.5225 15.455 14.8575 15.315 15.0875 15.035C15.3275 14.755 15.4975 14.42 15.5975 14.03C15.7075 13.63 15.7725 13.22 15.7925 12.8C15.8125 12.37 15.8225 12.005 15.8225 11.705C15.8225 11.525 15.8175 11.31 15.8075 11.06C15.8075 10.8 15.7875 10.535 15.7475 10.265C15.7175 9.99499 15.6675 9.72999 15.5975 9.46999C15.5375 9.19999 15.4425 8.95999 15.3125 8.74999C15.1825 8.53999 15.0175 8.36999 14.8175 8.23999C14.6175 8.10999 14.3725 8.04499 14.0825 8.04499C13.7925 8.04499 13.5475 8.10999 13.3475 8.23999C13.1575 8.36999 12.9975 8.53999 12.8675 8.74999C12.7475 8.95999 12.6525 9.19999 12.5825 9.46999C12.5125 9.72999 12.4625 9.99499 12.4325 10.265C12.4025 10.535 12.3825 10.8 12.3725 11.06C12.3725 11.31 12.3725 11.525 12.3725 11.705ZM10.2425 11.705C10.2425 10.685 10.3425 9.82999 10.5425 9.13999C10.7525 8.43999 11.0325 7.87999 11.3825 7.45999C11.7325 7.03999 12.1375 6.73999 12.5975 6.55999C13.0675 6.37999 13.5625 6.28999 14.0825 6.28999C14.6125 6.28999 15.1075 6.37999 15.5675 6.55999C16.0375 6.73999 16.4475 7.03999 16.7975 7.45999C17.1575 7.87999 17.4375 8.43999 17.6375 9.13999C17.8475 9.82999 17.9525 10.685 17.9525 11.705C17.9525 12.755 17.8475 13.635 17.6375 14.345C17.4375 15.045 17.1575 15.605 16.7975 16.025C16.4475 16.445 16.0375 16.745 15.5675 16.925C15.1075 17.105 14.6125 17.195 14.0825 17.195C13.5625 17.195 13.0675 17.105 12.5975 16.925C12.1375 16.745 11.7325 16.445 11.3825 16.025C11.0325 15.605 10.7525 15.045 10.5425 14.345C10.3425 13.635 10.2425 12.755 10.2425 11.705Z" fill="white"/>
<path d="M23.6175 17H21.4875V10.19H18.8475V8.58499C19.2175 8.59499 19.5725 8.56999 19.9125 8.50999C20.2625 8.43999 20.5725 8.32499 20.8425 8.16499C21.1225 7.99499 21.3575 7.77499 21.5475 7.50499C21.7375 7.23499 21.8625 6.89999 21.9225 6.49999H23.6175V17Z" fill="white"/>
<path d="M15.8075 30H13.6775V23.19H11.0375V21.585C11.4075 21.595 11.7625 21.57 12.1025 21.51C12.4525 21.44 12.7625 21.325 13.0325 21.165C13.3125 20.995 13.5475 20.775 13.7375 20.505C13.9275 20.235 14.0525 19.9 14.1125 19.5H15.8075V30Z" fill="white"/>
<path d="M20.1825 24.705C20.1825 25.005 20.1925 25.37 20.2125 25.8C20.2325 26.22 20.2925 26.63 20.3925 27.03C20.5025 27.42 20.6725 27.755 20.9025 28.035C21.1325 28.315 21.4625 28.455 21.8925 28.455C22.3325 28.455 22.6675 28.315 22.8975 28.035C23.1375 27.755 23.3075 27.42 23.4075 27.03C23.5175 26.63 23.5825 26.22 23.6025 25.8C23.6225 25.37 23.6325 25.005 23.6325 24.705C23.6325 24.525 23.6275 24.31 23.6175 24.06C23.6175 23.8 23.5975 23.535 23.5575 23.265C23.5275 22.995 23.4775 22.73 23.4075 22.47C23.3475 22.2 23.2525 21.96 23.1225 21.75C22.9925 21.54 22.8275 21.37 22.6275 21.24C22.4275 21.11 22.1825 21.045 21.8925 21.045C21.6025 21.045 21.3575 21.11 21.1575 21.24C20.9675 21.37 20.8075 21.54 20.6775 21.75C20.5575 21.96 20.4625 22.2 20.3925 22.47C20.3225 22.73 20.2725 22.995 20.2425 23.265C20.2125 23.535 20.1925 23.8 20.1825 24.06C20.1825 24.31 20.1825 24.525 20.1825 24.705ZM18.0525 24.705C18.0525 23.685 18.1525 22.83 18.3525 22.14C18.5625 21.44 18.8425 20.88 19.1925 20.46C19.5425 20.04 19.9475 19.74 20.4075 19.56C20.8775 19.38 21.3725 19.29 21.8925 19.29C22.4225 19.29 22.9175 19.38 23.3775 19.56C23.8475 19.74 24.2575 20.04 24.6075 20.46C24.9675 20.88 25.2475 21.44 25.4475 22.14C25.6575 22.83 25.7625 23.685 25.7625 24.705C25.7625 25.755 25.6575 26.635 25.4475 27.345C25.2475 28.045 24.9675 28.605 24.6075 29.025C24.2575 29.445 23.8475 29.745 23.3775 29.925C22.9175 30.105 22.4225 30.195 21.8925 30.195C21.3725 30.195 20.8775 30.105 20.4075 29.925C19.9475 29.745 19.5425 29.445 19.1925 29.025C18.8425 28.605 18.5625 28.045 18.3525 27.345C18.1525 26.635 18.0525 25.755 18.0525 24.705Z" fill="white"/>
<defs>
<linearGradient id="paint0_linear_304_12586" x1="18" y1="1.75" x2="18" y2="34.25" gradientUnits="userSpaceOnUse">
<stop stop-color="#2BAAEC"/>
<stop offset="1" stop-color="#177DD1"/>
</linearGradient>
</defs>
</svg>
