<svg width="36" height="36" viewBox="0 0 36 36" fill="none" xmlns="http://www.w3.org/2000/svg">
<path fill-rule="evenodd" clip-rule="evenodd" d="M9.25015 3.25H26.7499C27.5475 3.24998 28.2207 3.24997 28.7722 3.29503C29.3497 3.34221 29.903 3.44498 30.4295 3.71322C31.2291 4.12069 31.8793 4.77085 32.2868 5.57054C32.555 6.09699 32.6578 6.65026 32.705 7.22782C32.75 7.77932 32.75 8.45252 32.75 9.25012V26.7499C32.75 27.5475 32.75 28.2207 32.705 28.7722C32.6578 29.3497 32.555 29.903 32.2868 30.4295C31.8793 31.2291 31.2291 31.8793 30.4295 32.2868C29.903 32.555 29.3497 32.6578 28.7722 32.705C28.2207 32.75 27.5475 32.75 26.7499 32.75H9.25012C8.45252 32.75 7.77932 32.75 7.22782 32.705C6.65026 32.6578 6.09699 32.555 5.57054 32.2868C4.77085 31.8793 4.12069 31.2291 3.71322 30.4295C3.44498 29.903 3.34221 29.3497 3.29503 28.7722C3.24997 28.2207 3.24998 27.5475 3.25 26.7499V9.25015C3.24998 8.45254 3.24997 7.77933 3.29503 7.22782C3.34221 6.65026 3.44498 6.09699 3.71322 5.57054C4.12069 4.77085 4.77085 4.12069 5.57054 3.71322C6.09699 3.44498 6.65026 3.34221 7.22782 3.29503C7.77933 3.24997 8.45254 3.24998 9.25015 3.25Z" fill="#F6DF1C"/>
<path d="M20.3383 17.29V25C20.3383 26.14 20.0733 26.955 19.5433 27.445C19.0133 27.925 18.2033 28.165 17.1133 28.165C16.5433 28.165 16.0733 28.09 15.7033 27.94C15.3433 27.78 15.0533 27.56 14.8333 27.28C14.6233 26.99 14.4783 26.655 14.3983 26.275C14.3183 25.895 14.2783 25.495 14.2783 25.075V24.61H16.2583V24.94C16.2583 25.51 16.3183 25.935 16.4383 26.215C16.5683 26.485 16.8283 26.62 17.2183 26.62C17.6083 26.62 17.8633 26.485 17.9833 26.215C18.1133 25.935 18.1783 25.51 18.1783 24.94V17.29H20.3383Z" fill="black"/>
<path d="M23.7117 24.655V24.97C23.7117 25.22 23.7317 25.45 23.7717 25.66C23.8117 25.86 23.8867 26.03 23.9967 26.17C24.1067 26.31 24.2517 26.42 24.4317 26.5C24.6217 26.58 24.8567 26.62 25.1367 26.62C25.4667 26.62 25.7617 26.515 26.0217 26.305C26.2917 26.085 26.4267 25.75 26.4267 25.3C26.4267 25.06 26.3917 24.855 26.3217 24.685C26.2617 24.505 26.1567 24.345 26.0067 24.205C25.8567 24.065 25.6567 23.94 25.4067 23.83C25.1667 23.71 24.8667 23.59 24.5067 23.47C24.0267 23.31 23.6117 23.135 23.2617 22.945C22.9117 22.755 22.6167 22.535 22.3767 22.285C22.1467 22.025 21.9767 21.73 21.8667 21.4C21.7567 21.06 21.7017 20.67 21.7017 20.23C21.7017 19.17 21.9967 18.38 22.5867 17.86C23.1767 17.34 23.9867 17.08 25.0167 17.08C25.4967 17.08 25.9367 17.135 26.3367 17.245C26.7467 17.345 27.0967 17.515 27.3867 17.755C27.6867 17.985 27.9167 18.285 28.0767 18.655C28.2467 19.015 28.3317 19.45 28.3317 19.96V20.26H26.2617C26.2617 19.75 26.1717 19.36 25.9917 19.09C25.8117 18.81 25.5117 18.67 25.0917 18.67C24.8517 18.67 24.6517 18.705 24.4917 18.775C24.3317 18.845 24.2017 18.94 24.1017 19.06C24.0117 19.17 23.9467 19.3 23.9067 19.45C23.8767 19.6 23.8617 19.755 23.8617 19.915C23.8617 20.245 23.9317 20.525 24.0717 20.755C24.2117 20.975 24.5117 21.18 24.9717 21.37L26.6367 22.09C27.0467 22.27 27.3817 22.46 27.6417 22.66C27.9017 22.85 28.1067 23.06 28.2567 23.29C28.4167 23.51 28.5267 23.755 28.5867 24.025C28.6467 24.295 28.6767 24.595 28.6767 24.925C28.6767 26.055 28.3467 26.88 27.6867 27.4C27.0367 27.91 26.1267 28.165 24.9567 28.165C23.7367 28.165 22.8617 27.9 22.3317 27.37C21.8117 26.84 21.5517 26.08 21.5517 25.09V24.655H23.7117Z" fill="black"/>
</svg>
