<svg width="36" height="36" viewBox="0 0 36 36" fill="none" xmlns="http://www.w3.org/2000/svg">
<g clip-path="url(#clip0_352_5760)">
<path fill-rule="evenodd" clip-rule="evenodd" d="M15.7502 15.75L29.2499 15.75C30.0475 15.75 30.7207 15.75 31.2722 15.795C31.8497 15.8422 32.403 15.945 32.9295 16.2132C33.7292 16.6207 34.3793 17.2709 34.7868 18.0705C35.055 18.597 35.1578 19.1503 35.205 19.7278C35.25 20.2793 35.25 20.9525 35.25 21.7501L35.25 29.2499C35.25 30.0475 35.25 30.7207 35.205 31.2722C35.1578 31.8497 35.055 32.403 34.7868 32.9295C34.3793 33.7291 33.7291 34.3793 32.9295 34.7868C32.403 35.055 31.8497 35.1578 31.2722 35.205C30.7207 35.25 30.0474 35.25 29.2498 35.25H15.7502C14.9526 35.25 14.2793 35.25 13.7278 35.205C13.1503 35.1578 12.597 35.055 12.0705 34.7868C11.2709 34.3793 10.6207 33.7291 10.2132 32.9295C9.94498 32.403 9.84221 31.8497 9.79503 31.2722C9.74997 30.7207 9.74998 30.0475 9.75 29.2499L9.75 21.7502C9.74998 20.9525 9.74997 20.2793 9.79503 19.7278C9.84221 19.1503 9.94498 18.597 10.2132 18.0705C10.6207 17.2709 11.2709 16.6207 12.0705 16.2132C12.597 15.945 13.1503 15.8422 13.7278 15.795C14.2793 15.75 14.9525 15.75 15.7502 15.75Z" fill="#0E904D"/>
<path d="M19.5544 27.3731L18.6509 28.2637L20.0068 29.5979L18.6509 30.9332L19.5544 31.8226L20.9114 30.4879L22.2673 31.8221L23.1703 30.9326L21.8145 29.5984L23.1703 28.2637L22.2668 27.3731L20.9109 28.7079L19.5544 27.3731ZM14.7915 23.5506C13.8998 23.5506 13.1703 24.2882 13.1703 25.1901V30.1066C13.1703 31.0167 13.8998 31.7462 14.7909 31.7462H16.412C17.3113 31.7462 18.0326 31.0167 18.0326 30.1066V25.1901C18.0326 24.2882 17.3113 23.5506 16.412 23.5506H14.7915ZM14.7915 25.1901H16.412V30.1066H14.7909L14.7915 25.1901Z" fill="white"/>
<path fill-rule="evenodd" clip-rule="evenodd" d="M6.75015 0.750001L20.2499 0.750001C21.0475 0.749982 21.7207 0.749966 22.2722 0.795026C22.8497 0.842214 23.403 0.944983 23.9295 1.21322C24.7292 1.62069 25.3793 2.27085 25.7868 3.07054C26.055 3.597 26.1578 4.15026 26.205 4.72782C26.25 5.27932 26.25 5.95252 26.25 6.75012L26.25 14.2499C26.25 15.0475 26.25 15.7207 26.205 16.2722C26.1578 16.8497 26.055 17.403 25.7868 17.9295C25.3793 18.7291 24.7291 19.3793 23.9295 19.7868C23.403 20.055 22.8497 20.1578 22.2722 20.205C21.7207 20.25 21.0474 20.25 20.2498 20.25H6.75021C5.95257 20.25 5.27934 20.25 4.72782 20.205C4.15026 20.1578 3.59699 20.055 3.07054 19.7868C2.27085 19.3793 1.62069 18.7291 1.21322 17.9295C0.944983 17.403 0.842214 16.8497 0.795025 16.2722C0.749965 15.7207 0.749981 15.0475 0.750001 14.2499L0.750001 6.75015C0.749982 5.95254 0.749966 5.27933 0.795026 4.72782C0.842215 4.15026 0.944984 3.59699 1.21322 3.07054C1.62069 2.27085 2.27085 1.62069 3.07054 1.21322C3.597 0.944983 4.15026 0.842214 4.72782 0.795025C5.27933 0.749965 5.95254 0.749981 6.75015 0.750001Z" fill="url(#paint0_linear_352_5760)"/>
<path fill-rule="evenodd" clip-rule="evenodd" d="M21.1318 10.7008H22.5V16.088H21.1318V10.7008ZM9.50242 10.7009H7.8349L4.5 16.0881H5.99645L6.46675 15.233H8.17695V16.0881H9.50242V10.7009ZM7.10808 14.1215L8.26248 12.0691L8.21976 14.1215H7.10808ZM20.5332 10.7008H19.1652V16.088H20.5332V10.7008ZM12.7091 12.6248H14.1199V11.6415C14.1199 11.6415 14.1628 10.7008 13.2221 10.7008H10.7851C10.614 10.7008 9.97272 10.8718 9.97272 11.5987V12.411C9.97272 12.4965 9.97272 12.7958 10.443 13.0951C10.9133 13.3944 12.5381 14.3778 12.5381 14.3778C12.5381 14.3778 12.7518 14.4633 12.7518 14.7198C12.7518 14.9764 12.6236 14.9764 12.4525 14.9764H11.5546C11.5546 14.9764 11.3408 15.0191 11.3408 14.7626V14.1214H9.97268V15.1901C9.97268 15.1901 9.92991 16.088 10.956 16.088H13.1793C13.3076 16.088 14.0772 16.0454 14.0772 15.2329V14.3778C14.0772 14.3778 14.1628 13.9502 13.6496 13.6083L11.4691 12.3256C11.4691 12.3256 11.2981 12.1973 11.2981 12.069C11.2981 11.9834 11.3408 11.7697 11.5546 11.7697H12.4953C12.4953 11.7697 12.7091 11.7697 12.7091 12.0262V12.6248ZM15.8729 14.7626V14.1214H15.873V12.1118C15.873 11.9834 15.873 11.7697 16.1296 11.7697H17.0701C17.0701 11.7697 17.284 11.8125 17.284 12.069V12.6248H18.6949V11.6415C18.6949 11.6415 18.6949 10.7008 17.7542 10.7008H15.3599C15.1889 10.7008 14.5476 10.8718 14.5475 11.5987V15.1901C14.5475 15.1901 14.5047 16.088 15.5309 16.088H17.7542C17.8824 16.088 18.652 16.0454 18.652 15.2329V14.164H17.2839V14.7198C17.2839 15.0191 17.2411 15.0191 17.1128 15.0191H16.0439C16.0439 15.0191 15.8729 15.0619 15.8729 14.7626Z" fill="white"/>
<path d="M23.75 15C23.75 14.3096 23.1904 13.75 22.5 13.75C21.8096 13.75 21.25 14.3096 21.25 15L21.25 19H19.7963C19.2272 19 18.9427 19 18.804 19.1147C18.6835 19.2144 18.6166 19.3646 18.6231 19.5209C18.6306 19.7007 18.821 19.9122 19.2017 20.3352L21.3107 22.6786C21.7226 23.1362 21.9285 23.365 22.171 23.4495C22.3841 23.5237 22.6159 23.5237 22.829 23.4495C23.0715 23.365 23.2774 23.1362 23.6893 22.6786L25.7983 20.3352C26.179 19.9122 26.3694 19.7007 26.3769 19.5209C26.3834 19.3646 26.3165 19.2144 26.196 19.1147C26.0573 19 25.7728 19 25.2037 19H23.75V15Z" fill="#CAE2F6"/>
</g>
<defs>
<linearGradient id="paint0_linear_352_5760" x1="13.5" y1="0.75" x2="13.5" y2="20.25" gradientUnits="userSpaceOnUse">
<stop stop-color="#008AE8"/>
<stop offset="1" stop-color="#0161A7"/>
</linearGradient>
<clipPath id="clip0_352_5760">
<rect width="36" height="36" fill="white"/>
</clipPath>
</defs>
</svg>
