<svg width="36" height="36" viewBox="0 0 36 36" fill="none" xmlns="http://www.w3.org/2000/svg">
<g clip-path="url(#clip0_304_12488)">
<path fill-rule="evenodd" clip-rule="evenodd" d="M21.7502 9.75L29.2499 9.75C30.0475 9.74998 30.7207 9.74997 31.2722 9.79503C31.8497 9.84221 32.403 9.94498 32.9295 10.2132C33.7292 10.6207 34.3793 11.2709 34.7868 12.0705C35.055 12.597 35.1578 13.1503 35.205 13.7278C35.25 14.2793 35.25 14.9525 35.25 15.7501L35.25 29.2499C35.25 30.0475 35.25 30.7207 35.205 31.2722C35.1578 31.8497 35.055 32.403 34.7868 32.9295C34.3793 33.7291 33.7291 34.3793 32.9295 34.7868C32.403 35.055 31.8497 35.1578 31.2722 35.205C30.7207 35.25 30.0474 35.25 29.2498 35.25H21.7502C20.9526 35.25 20.2793 35.25 19.7278 35.205C19.1503 35.1578 18.597 35.055 18.0705 34.7868C17.2709 34.3793 16.6207 33.7291 16.2132 32.9295C15.945 32.403 15.8422 31.8497 15.795 31.2722C15.75 30.7207 15.75 30.0475 15.75 29.2498L15.75 15.7501C15.75 14.9525 15.75 14.2793 15.795 13.7278C15.8422 13.1503 15.945 12.597 16.2132 12.0705C16.6207 11.2709 17.2709 10.6207 18.0705 10.2132C18.597 9.94498 19.1503 9.84221 19.7278 9.79503C20.2793 9.74997 20.9525 9.74998 21.7502 9.75Z" fill="#F0414B"/>
<path d="M25.7342 21.792H27.2142L26.4942 19.696H26.4782L25.7342 21.792ZM25.8542 18.288H27.1422L29.2782 24H27.9742L27.5422 22.728H25.4062L24.9582 24H23.6942L25.8542 18.288Z" fill="white"/>
<path d="M21.032 21.776L18.936 18.288H20.344L21.68 20.544L23.008 18.288H24.408L22.288 21.808V24H21.032V21.776Z" fill="white"/>
<path d="M27.3098 25.288H28.5658V29.944H31.3498V31H27.3098V25.288Z" fill="white"/>
<path d="M20.052 25.288H21.82L23.156 29.216H23.172L24.436 25.288H26.204V31H25.028V26.952H25.012L23.612 31H22.644L21.244 26.992H21.228V31H20.052V25.288Z" fill="white"/>
<path fill-rule="evenodd" clip-rule="evenodd" d="M6.75015 0.750001L14.2499 0.750001C15.0475 0.749982 15.7207 0.749966 16.2722 0.795026C16.8497 0.842214 17.403 0.944983 17.9295 1.21322C18.7291 1.62069 19.3793 2.27085 19.7868 3.07054C20.055 3.59699 20.1578 4.15026 20.205 4.72782C20.25 5.27932 20.25 5.95252 20.25 6.75012L20.25 20.2499C20.25 21.0475 20.25 21.7207 20.205 22.2722C20.1578 22.8497 20.055 23.403 19.7868 23.9295C19.3793 24.7292 18.7291 25.3793 17.9295 25.7868C17.403 26.055 16.8497 26.1578 16.2722 26.205C15.7207 26.25 15.0475 26.25 14.2499 26.25H6.75012C5.95252 26.25 5.27932 26.25 4.72782 26.205C4.15026 26.1578 3.59699 26.055 3.07054 25.7868C2.27085 25.3793 1.62069 24.7292 1.21322 23.9295C0.944983 23.403 0.842214 22.8497 0.795025 22.2722C0.749965 21.7207 0.749981 21.0475 0.750001 20.2499L0.750001 6.75015C0.749982 5.95254 0.749966 5.27933 0.795026 4.72782C0.842214 4.15026 0.944984 3.59699 1.21322 3.07054C1.62069 2.27085 2.27085 1.62069 3.07054 1.21322C3.59699 0.944983 4.15026 0.842214 4.72782 0.795025C5.27933 0.749965 5.95254 0.749981 6.75015 0.750001Z" fill="#FB912D"/>
<path d="M8.49599 12.572H7.84799C7.70399 12.572 7.58799 12.6 7.49999 12.656C7.41999 12.712 7.35599 12.784 7.30799 12.872C7.25999 12.952 7.22799 13.044 7.21199 13.148C7.20399 13.252 7.19999 13.352 7.19999 13.448V15.272C7.19999 15.568 7.15199 15.808 7.05599 15.992C6.96799 16.168 6.85999 16.308 6.73199 16.412C6.61199 16.508 6.48399 16.576 6.34799 16.616C6.21199 16.656 6.09999 16.68 6.01199 16.688V16.724C6.09999 16.732 6.21199 16.76 6.34799 16.808C6.48399 16.848 6.61199 16.92 6.73199 17.024C6.85999 17.12 6.96799 17.252 7.05599 17.42C7.15199 17.58 7.19999 17.788 7.19999 18.044V19.964C7.19999 20.052 7.20399 20.148 7.21199 20.252C7.22799 20.356 7.25999 20.448 7.30799 20.528C7.35599 20.616 7.41999 20.688 7.49999 20.744C7.58799 20.8 7.70399 20.828 7.84799 20.828H8.49599V22.172H6.97199C6.83599 22.172 6.67999 22.136 6.50399 22.064C6.33599 22 6.17599 21.9 6.02399 21.764C5.87999 21.636 5.75599 21.468 5.65199 21.26C5.54799 21.06 5.49599 20.824 5.49599 20.552V18.224C5.49599 18.04 5.45599 17.884 5.37599 17.756C5.29599 17.628 5.19999 17.528 5.08799 17.456C4.97599 17.376 4.85599 17.32 4.72799 17.288C4.59999 17.248 4.49199 17.228 4.40399 17.228V16.184C4.49199 16.184 4.59999 16.168 4.72799 16.136C4.85599 16.096 4.97599 16.036 5.08799 15.956C5.19999 15.868 5.29599 15.756 5.37599 15.62C5.45599 15.476 5.49599 15.304 5.49599 15.104V12.848C5.49599 12.576 5.54799 12.34 5.65199 12.14C5.75599 11.932 5.87999 11.764 6.02399 11.636C6.17599 11.5 6.33599 11.4 6.50399 11.336C6.67999 11.264 6.83599 11.228 6.97199 11.228H8.49599V12.572Z" fill="white"/>
<path d="M11.8359 20.828H12.4839C12.6279 20.828 12.7399 20.8 12.8199 20.744C12.9079 20.688 12.9759 20.616 13.0239 20.528C13.0719 20.448 13.0999 20.356 13.1079 20.252C13.1239 20.148 13.1319 20.052 13.1319 19.964V18.044C13.1319 17.788 13.1759 17.58 13.2639 17.42C13.3599 17.252 13.4679 17.12 13.5879 17.024C13.7159 16.92 13.8479 16.848 13.9839 16.808C14.1199 16.76 14.2319 16.732 14.3199 16.724V16.688C14.2319 16.68 14.1199 16.656 13.9839 16.616C13.8479 16.576 13.7159 16.508 13.5879 16.412C13.4679 16.308 13.3599 16.168 13.2639 15.992C13.1759 15.808 13.1319 15.568 13.1319 15.272V13.448C13.1319 13.352 13.1239 13.252 13.1079 13.148C13.0999 13.044 13.0719 12.952 13.0239 12.872C12.9759 12.784 12.9079 12.712 12.8199 12.656C12.7399 12.6 12.6279 12.572 12.4839 12.572H11.8359V11.228H13.3599C13.4959 11.228 13.6479 11.264 13.8159 11.336C13.9919 11.4 14.1519 11.5 14.2959 11.636C14.4479 11.764 14.5759 11.932 14.6799 12.14C14.7839 12.34 14.8359 12.576 14.8359 12.848V15.104C14.8359 15.304 14.8759 15.476 14.9559 15.62C15.0359 15.756 15.1319 15.868 15.2439 15.956C15.3559 16.036 15.4759 16.096 15.6039 16.136C15.7319 16.168 15.8439 16.184 15.9399 16.184V17.228C15.8439 17.228 15.7319 17.248 15.6039 17.288C15.4759 17.32 15.3559 17.376 15.2439 17.456C15.1319 17.528 15.0359 17.628 14.9559 17.756C14.8759 17.884 14.8359 18.04 14.8359 18.224V20.552C14.8359 20.824 14.7839 21.06 14.6799 21.26C14.5759 21.468 14.4479 21.636 14.2959 21.764C14.1519 21.9 13.9919 22 13.8159 22.064C13.6479 22.136 13.4959 22.172 13.3599 22.172H11.8359V20.828Z" fill="white"/>
<path d="M26.4496 12.171C26.3651 11.9285 26.1363 11.7226 25.6786 11.3107L23.3352 9.20162C22.9122 8.82094 22.7008 8.6306 22.5209 8.62309C22.3647 8.61656 22.2144 8.68349 22.1148 8.80396C22.0001 8.94266 22.0001 9.22719 22.0001 9.79626L22.0001 11.25H18.0001C17.3097 11.25 16.7501 11.8096 16.7501 12.5C16.7501 13.1903 17.3097 13.75 18.0001 13.75H22.0001V15.2037C22.0001 15.7727 22.0001 16.0573 22.1148 16.196C22.2144 16.3165 22.3647 16.3834 22.5209 16.3769C22.7008 16.3693 22.9122 16.179 23.3352 15.7983L25.6786 13.6892C26.1363 13.2774 26.3651 13.0715 26.4496 12.8289C26.5238 12.6159 26.5238 12.384 26.4496 12.171Z" fill="#43474A"/>
</g>
<defs>
<clipPath id="clip0_304_12488">
<rect width="36" height="36" fill="white"/>
</clipPath>
</defs>
</svg>
