<svg width="36" height="36" viewBox="0 0 36 36" fill="none" xmlns="http://www.w3.org/2000/svg">
<path d="M9.60331 10.794H2.54131V6.438H21.8463V10.794H14.7843V30H9.60331V10.794Z" fill="url(#paint0_linear_348_4901)"/>
<path d="M30.0081 12.939H33.4401V16.074H30.0081V24.522C30.0081 25.314 30.1401 25.842 30.4041 26.106C30.6681 26.37 31.1961 26.502 31.9881 26.502C32.2521 26.502 32.5051 26.491 32.7471 26.469C32.9891 26.447 33.2201 26.414 33.4401 26.37V30C33.0441 30.066 32.6041 30.11 32.1201 30.132C31.6361 30.154 31.1631 30.165 30.7011 30.165C29.9751 30.165 29.2821 30.11 28.6221 30C27.9841 29.912 27.4121 29.725 26.9061 29.439C26.4221 29.153 26.0371 28.746 25.7511 28.218C25.4651 27.69 25.3221 26.997 25.3221 26.139V16.074H22.4841V12.939H25.3221V7.824H30.0081V12.939Z" fill="url(#paint1_linear_348_4901)"/>
<defs>
<linearGradient id="paint0_linear_348_4901" x1="18" y1="-2.99998" x2="18" y2="37" gradientUnits="userSpaceOnUse">
<stop stop-color="#CC4AFB"/>
<stop offset="1" stop-color="#8C24E0"/>
</linearGradient>
<linearGradient id="paint1_linear_348_4901" x1="18" y1="-2.99998" x2="18" y2="37" gradientUnits="userSpaceOnUse">
<stop stop-color="#CC4AFB"/>
<stop offset="1" stop-color="#8C24E0"/>
</linearGradient>
</defs>
</svg>
