<svg width="36" height="36" viewBox="0 0 36 36" fill="none" xmlns="http://www.w3.org/2000/svg">
<path fill-rule="evenodd" clip-rule="evenodd" d="M31.25 7.75015V28.2499C31.25 29.0475 31.25 29.7207 31.205 30.2722C31.1578 30.8497 31.055 31.403 30.7868 31.9295C30.3793 32.7291 29.7291 33.3793 28.9295 33.7868C28.403 34.055 27.8497 34.1578 27.2722 34.205C26.7207 34.25 26.0475 34.25 25.2499 34.25H10.7501C9.95252 34.25 9.27932 34.25 8.72782 34.205C8.15026 34.1578 7.59699 34.055 7.07054 33.7868C6.27085 33.3793 5.62068 32.7291 5.21322 31.9295C4.94498 31.403 4.84221 30.8497 4.79503 30.2722C4.74996 29.7207 4.74998 29.0475 4.75 28.2499L4.75 7.75012C4.74998 6.95252 4.74997 6.27932 4.79503 5.72782C4.84221 5.15026 4.94498 4.59699 5.21322 4.07054C5.62069 3.27085 6.27085 2.62069 7.07054 2.21322C7.59699 1.94498 8.15026 1.84221 8.72782 1.79503C9.27933 1.74997 9.95254 1.74998 10.7502 1.75L25.2499 1.75C26.0475 1.74998 26.7207 1.74997 27.2722 1.79503C27.8497 1.84221 28.403 1.94498 28.9295 2.21322C29.7292 2.62069 30.3793 3.27085 30.7868 4.07054C31.055 4.597 31.1578 5.15026 31.205 5.72782C31.25 6.27933 31.25 6.95254 31.25 7.75015Z" fill="#33C481"/>
<path d="M10.0297 14.44H12.2097L16.7297 29.22H14.4897L10.0297 14.44Z" fill="#094928"/>
<path d="M17.8903 18.24H20.5303V19.5H20.5703C20.8637 18.9667 21.2437 18.58 21.7103 18.34C22.177 18.0867 22.7103 17.96 23.3103 17.96C24.1903 17.96 24.8637 18.2 25.3303 18.68C25.8103 19.16 26.0503 19.94 26.0503 21.02V29H23.2903V21.58C23.2903 21.02 23.197 20.6333 23.0103 20.42C22.8237 20.1933 22.5237 20.08 22.1103 20.08C21.137 20.08 20.6503 20.6733 20.6503 21.86V29H17.8903V18.24Z" fill="#094928"/>
</svg>
