<svg width="36" height="36" viewBox="0 0 36 36" fill="none" xmlns="http://www.w3.org/2000/svg">
<path fill-rule="evenodd" clip-rule="evenodd" d="M2.75 10.75H33.25V27.2499C33.25 28.0475 33.25 28.7207 33.205 29.2722C33.1578 29.8497 33.055 30.403 32.7868 30.9295C32.3793 31.7291 31.7292 32.3793 30.9295 32.7868C30.403 33.055 29.8497 33.1578 29.2722 33.205C28.7207 33.25 28.0475 33.25 27.2499 33.25H8.75012C7.95252 33.25 7.27932 33.25 6.72782 33.205C6.15026 33.1578 5.59699 33.055 5.07054 32.7868C4.27085 32.3793 3.62069 31.7291 3.21322 30.9295C2.94498 30.403 2.84221 29.8497 2.79503 29.2722C2.74997 28.7207 2.74998 28.0475 2.75 27.2499L2.75 10.75Z" fill="url(#paint0_linear_349_5048)"/>
<path fill-rule="evenodd" clip-rule="evenodd" d="M8.75015 4.75H27.2499C28.0475 4.74998 28.7207 4.74997 29.2722 4.79503C29.8497 4.84221 30.403 4.94498 30.9295 5.21322C31.7292 5.62069 32.3793 6.27085 32.7868 7.07054C33.055 7.59699 33.1578 8.15026 33.205 8.72782C33.25 9.27932 33.25 9.95252 33.25 10.7501V12.25H2.75L2.75 10.7502C2.74998 9.95254 2.74997 9.27933 2.79503 8.72782C2.84221 8.15026 2.94498 7.59699 3.21322 7.07054C3.62069 6.27085 4.27085 5.62069 5.07054 5.21322C5.59699 4.94498 6.15026 4.84221 6.72782 4.79503C7.27933 4.74997 7.95254 4.74998 8.75015 4.75Z" fill="url(#paint1_linear_349_5048)"/>
<path d="M7.5 26.3C7.5 26.02 7.5 25.88 7.5545 25.773C7.60243 25.6789 7.67892 25.6024 7.773 25.5545C7.87996 25.5 8.01997 25.5 8.3 25.5H9.7C9.98003 25.5 10.12 25.5 10.227 25.5545C10.3211 25.6024 10.3976 25.6789 10.4455 25.773C10.5 25.88 10.5 26.02 10.5 26.3V27.7C10.5 27.98 10.5 28.12 10.4455 28.227C10.3976 28.3211 10.3211 28.3976 10.227 28.4455C10.12 28.5 9.98003 28.5 9.7 28.5H8.3C8.01997 28.5 7.87996 28.5 7.773 28.4455C7.67892 28.3976 7.60243 28.3211 7.5545 28.227C7.5 28.12 7.5 27.98 7.5 27.7V26.3Z" fill="url(#paint2_linear_349_5048)"/>
<path d="M13.5 26.3C13.5 26.02 13.5 25.88 13.5545 25.773C13.6024 25.6789 13.6789 25.6024 13.773 25.5545C13.88 25.5 14.02 25.5 14.3 25.5H15.7C15.98 25.5 16.12 25.5 16.227 25.5545C16.3211 25.6024 16.3976 25.6789 16.4455 25.773C16.5 25.88 16.5 26.02 16.5 26.3V27.7C16.5 27.98 16.5 28.12 16.4455 28.227C16.3976 28.3211 16.3211 28.3976 16.227 28.4455C16.12 28.5 15.98 28.5 15.7 28.5H14.3C14.02 28.5 13.88 28.5 13.773 28.4455C13.6789 28.3976 13.6024 28.3211 13.5545 28.227C13.5 28.12 13.5 27.98 13.5 27.7V26.3Z" fill="url(#paint3_linear_349_5048)"/>
<path d="M19.5 26.3C19.5 26.02 19.5 25.88 19.5545 25.773C19.6024 25.6789 19.6789 25.6024 19.773 25.5545C19.88 25.5 20.02 25.5 20.3 25.5H21.7C21.98 25.5 22.12 25.5 22.227 25.5545C22.3211 25.6024 22.3976 25.6789 22.4455 25.773C22.5 25.88 22.5 26.02 22.5 26.3V27.7C22.5 27.98 22.5 28.12 22.4455 28.227C22.3976 28.3211 22.3211 28.3976 22.227 28.4455C22.12 28.5 21.98 28.5 21.7 28.5H20.3C20.02 28.5 19.88 28.5 19.773 28.4455C19.6789 28.3976 19.6024 28.3211 19.5545 28.227C19.5 28.12 19.5 27.98 19.5 27.7V26.3Z" fill="url(#paint4_linear_349_5048)"/>
<path d="M7.5 21.3C7.5 21.02 7.5 20.88 7.5545 20.773C7.60243 20.6789 7.67892 20.6024 7.773 20.5545C7.87996 20.5 8.01997 20.5 8.3 20.5H9.7C9.98003 20.5 10.12 20.5 10.227 20.5545C10.3211 20.6024 10.3976 20.6789 10.4455 20.773C10.5 20.88 10.5 21.02 10.5 21.3V22.7C10.5 22.98 10.5 23.12 10.4455 23.227C10.3976 23.3211 10.3211 23.3976 10.227 23.4455C10.12 23.5 9.98003 23.5 9.7 23.5H8.3C8.01997 23.5 7.87996 23.5 7.773 23.4455C7.67892 23.3976 7.60243 23.3211 7.5545 23.227C7.5 23.12 7.5 22.98 7.5 22.7V21.3Z" fill="url(#paint5_linear_349_5048)"/>
<path d="M13.5 21.3C13.5 21.02 13.5 20.88 13.5545 20.773C13.6024 20.6789 13.6789 20.6024 13.773 20.5545C13.88 20.5 14.02 20.5 14.3 20.5H15.7C15.98 20.5 16.12 20.5 16.227 20.5545C16.3211 20.6024 16.3976 20.6789 16.4455 20.773C16.5 20.88 16.5 21.02 16.5 21.3V22.7C16.5 22.98 16.5 23.12 16.4455 23.227C16.3976 23.3211 16.3211 23.3976 16.227 23.4455C16.12 23.5 15.98 23.5 15.7 23.5H14.3C14.02 23.5 13.88 23.5 13.773 23.4455C13.6789 23.3976 13.6024 23.3211 13.5545 23.227C13.5 23.12 13.5 22.98 13.5 22.7V21.3Z" fill="url(#paint6_linear_349_5048)"/>
<path d="M19.5 21.3C19.5 21.02 19.5 20.88 19.5545 20.773C19.6024 20.6789 19.6789 20.6024 19.773 20.5545C19.88 20.5 20.02 20.5 20.3 20.5H21.7C21.98 20.5 22.12 20.5 22.227 20.5545C22.3211 20.6024 22.3976 20.6789 22.4455 20.773C22.5 20.88 22.5 21.02 22.5 21.3V22.7C22.5 22.98 22.5 23.12 22.4455 23.227C22.3976 23.3211 22.3211 23.3976 22.227 23.4455C22.12 23.5 21.98 23.5 21.7 23.5H20.3C20.02 23.5 19.88 23.5 19.773 23.4455C19.6789 23.3976 19.6024 23.3211 19.5545 23.227C19.5 23.12 19.5 22.98 19.5 22.7V21.3Z" fill="url(#paint7_linear_349_5048)"/>
<path d="M25.5 21.3C25.5 21.02 25.5 20.88 25.5545 20.773C25.6024 20.6789 25.6789 20.6024 25.773 20.5545C25.88 20.5 26.02 20.5 26.3 20.5H27.7C27.98 20.5 28.12 20.5 28.227 20.5545C28.3211 20.6024 28.3976 20.6789 28.4455 20.773C28.5 20.88 28.5 21.02 28.5 21.3V22.7C28.5 22.98 28.5 23.12 28.4455 23.227C28.3976 23.3211 28.3211 23.3976 28.227 23.4455C28.12 23.5 27.98 23.5 27.7 23.5H26.3C26.02 23.5 25.88 23.5 25.773 23.4455C25.6789 23.3976 25.6024 23.3211 25.5545 23.227C25.5 23.12 25.5 22.98 25.5 22.7V21.3Z" fill="url(#paint8_linear_349_5048)"/>
<path d="M13.5 16.3C13.5 16.02 13.5 15.88 13.5545 15.773C13.6024 15.6789 13.6789 15.6024 13.773 15.5545C13.88 15.5 14.02 15.5 14.3 15.5H15.7C15.98 15.5 16.12 15.5 16.227 15.5545C16.3211 15.6024 16.3976 15.6789 16.4455 15.773C16.5 15.88 16.5 16.02 16.5 16.3V17.7C16.5 17.98 16.5 18.12 16.4455 18.227C16.3976 18.3211 16.3211 18.3976 16.227 18.4455C16.12 18.5 15.98 18.5 15.7 18.5H14.3C14.02 18.5 13.88 18.5 13.773 18.4455C13.6789 18.3976 13.6024 18.3211 13.5545 18.227C13.5 18.12 13.5 17.98 13.5 17.7V16.3Z" fill="url(#paint9_linear_349_5048)"/>
<path d="M19.5 16.3C19.5 16.02 19.5 15.88 19.5545 15.773C19.6024 15.6789 19.6789 15.6024 19.773 15.5545C19.88 15.5 20.02 15.5 20.3 15.5H21.7C21.98 15.5 22.12 15.5 22.227 15.5545C22.3211 15.6024 22.3976 15.6789 22.4455 15.773C22.5 15.88 22.5 16.02 22.5 16.3V17.7C22.5 17.98 22.5 18.12 22.4455 18.227C22.3976 18.3211 22.3211 18.3976 22.227 18.4455C22.12 18.5 21.98 18.5 21.7 18.5H20.3C20.02 18.5 19.88 18.5 19.773 18.4455C19.6789 18.3976 19.6024 18.3211 19.5545 18.227C19.5 18.12 19.5 17.98 19.5 17.7V16.3Z" fill="url(#paint10_linear_349_5048)"/>
<path d="M25.5 16.3C25.5 16.02 25.5 15.88 25.5545 15.773C25.6024 15.6789 25.6789 15.6024 25.773 15.5545C25.88 15.5 26.02 15.5 26.3 15.5H27.7C27.98 15.5 28.12 15.5 28.227 15.5545C28.3211 15.6024 28.3976 15.6789 28.4455 15.773C28.5 15.88 28.5 16.02 28.5 16.3V17.7C28.5 17.98 28.5 18.12 28.4455 18.227C28.3976 18.3211 28.3211 18.3976 28.227 18.4455C28.12 18.5 27.98 18.5 27.7 18.5H26.3C26.02 18.5 25.88 18.5 25.773 18.4455C25.6789 18.3976 25.6024 18.3211 25.5545 18.227C25.5 18.12 25.5 17.98 25.5 17.7V16.3Z" fill="url(#paint11_linear_349_5048)"/>
<path fill-rule="evenodd" clip-rule="evenodd" d="M10 2.75C10.6904 2.75 11.25 3.30964 11.25 4V8.5C11.25 9.19036 10.6904 9.75 10 9.75C9.30964 9.75 8.75 9.19036 8.75 8.5V4C8.75 3.30964 9.30964 2.75 10 2.75Z" fill="#41CAF6"/>
<path fill-rule="evenodd" clip-rule="evenodd" d="M26 2.75C26.6904 2.75 27.25 3.30964 27.25 4V8.5C27.25 9.19036 26.6904 9.75 26 9.75C25.3096 9.75 24.75 9.19036 24.75 8.5V4C24.75 3.30964 25.3096 2.75 26 2.75Z" fill="#41CAF6"/>
<defs>
<linearGradient id="paint0_linear_349_5048" x1="18" y1="12" x2="18" y2="32" gradientUnits="userSpaceOnUse">
<stop stop-color="#25ACE8"/>
<stop offset="1" stop-color="#178DDE"/>
</linearGradient>
<linearGradient id="paint1_linear_349_5048" x1="18" y1="6" x2="18" y2="11" gradientUnits="userSpaceOnUse">
<stop stop-color="#1877D2"/>
<stop offset="1" stop-color="#0E5897"/>
</linearGradient>
<linearGradient id="paint2_linear_349_5048" x1="9" y1="25.5" x2="9" y2="28.5" gradientUnits="userSpaceOnUse">
<stop offset="0.177083" stop-color="white"/>
<stop offset="1" stop-color="#E2E2E2"/>
</linearGradient>
<linearGradient id="paint3_linear_349_5048" x1="15" y1="25.5" x2="15" y2="28.5" gradientUnits="userSpaceOnUse">
<stop offset="0.177083" stop-color="white"/>
<stop offset="1" stop-color="#E2E2E2"/>
</linearGradient>
<linearGradient id="paint4_linear_349_5048" x1="21" y1="25.5" x2="21" y2="28.5" gradientUnits="userSpaceOnUse">
<stop offset="0.177083" stop-color="white"/>
<stop offset="1" stop-color="#E2E2E2"/>
</linearGradient>
<linearGradient id="paint5_linear_349_5048" x1="9" y1="20.5" x2="9" y2="23.5" gradientUnits="userSpaceOnUse">
<stop offset="0.177083" stop-color="white"/>
<stop offset="1" stop-color="#E2E2E2"/>
</linearGradient>
<linearGradient id="paint6_linear_349_5048" x1="15" y1="20.5" x2="15" y2="23.5" gradientUnits="userSpaceOnUse">
<stop offset="0.177083" stop-color="white"/>
<stop offset="1" stop-color="#E2E2E2"/>
</linearGradient>
<linearGradient id="paint7_linear_349_5048" x1="21" y1="20.5" x2="21" y2="23.5" gradientUnits="userSpaceOnUse">
<stop offset="0.177083" stop-color="white"/>
<stop offset="1" stop-color="#E2E2E2"/>
</linearGradient>
<linearGradient id="paint8_linear_349_5048" x1="27" y1="20.5" x2="27" y2="23.5" gradientUnits="userSpaceOnUse">
<stop offset="0.177083" stop-color="white"/>
<stop offset="1" stop-color="#E2E2E2"/>
</linearGradient>
<linearGradient id="paint9_linear_349_5048" x1="15" y1="15.5" x2="15" y2="18.5" gradientUnits="userSpaceOnUse">
<stop offset="0.177083" stop-color="white"/>
<stop offset="1" stop-color="#E2E2E2"/>
</linearGradient>
<linearGradient id="paint10_linear_349_5048" x1="21" y1="15.5" x2="21" y2="18.5" gradientUnits="userSpaceOnUse">
<stop offset="0.177083" stop-color="white"/>
<stop offset="1" stop-color="#E2E2E2"/>
</linearGradient>
<linearGradient id="paint11_linear_349_5048" x1="27" y1="15.5" x2="27" y2="18.5" gradientUnits="userSpaceOnUse">
<stop offset="0.177083" stop-color="white"/>
<stop offset="1" stop-color="#E2E2E2"/>
</linearGradient>
</defs>
</svg>
