<svg width="36" height="36" viewBox="0 0 36 36" fill="none" xmlns="http://www.w3.org/2000/svg">
<path fill-rule="evenodd" clip-rule="evenodd" d="M15.75 3C15.75 1.75736 16.7574 0.75 18 0.75C19.2426 0.75 20.25 1.75736 20.25 3V33C20.25 34.2426 19.2426 35.25 18 35.25C16.7574 35.25 15.75 34.2426 15.75 33V3Z" fill="#B13217"/>
<path fill-rule="evenodd" clip-rule="evenodd" d="M6.5606 15.1068C6.58239 15.1061 6.60321 15.1055 6.62296 15.1048L28.746 14.3323C28.9939 14.3236 29.2491 14.3146 29.4682 14.3248C29.7128 14.3362 30.0206 14.3738 30.3385 14.522C30.7692 14.7228 31.1252 15.0548 31.3555 15.4704C31.5256 15.7772 31.5845 16.0816 31.613 16.3248C31.6385 16.5428 31.6473 16.7979 31.6559 17.0458L31.826 21.916C31.8347 22.1639 31.8437 22.419 31.8334 22.6382C31.822 22.8828 31.7845 23.1906 31.6362 23.5085C31.4354 23.9391 31.1034 24.2951 30.6879 24.5255C30.3811 24.6955 30.0767 24.7545 29.8334 24.7829C29.6155 24.8084 29.3604 24.8173 29.1125 24.8259L6.9894 25.5984C6.96965 25.5991 6.94883 25.5999 6.92705 25.6008C6.70539 25.6095 6.38377 25.6221 6.06906 25.544C5.79829 25.4768 5.54237 25.3598 5.31437 25.199C5.04938 25.0122 4.84848 24.7607 4.71001 24.5874C4.69641 24.5704 4.68341 24.5541 4.671 24.5387L2.78834 22.203C2.77 22.1802 2.75047 22.1563 2.73002 22.1312C2.52727 21.8828 2.23387 21.5233 2.10317 21.089C1.9913 20.7172 1.97752 20.3228 2.06319 19.9441C2.16327 19.5018 2.43088 19.1227 2.61581 18.8607C2.63446 18.8343 2.65227 18.809 2.66899 18.7851L4.38413 16.3237C4.39543 16.3075 4.40726 16.2903 4.41965 16.2724C4.54569 16.0898 4.72855 15.825 4.97987 15.6201C5.1961 15.4438 5.44323 15.3092 5.70865 15.2233C6.01715 15.1234 6.33886 15.1136 6.5606 15.1068Z" fill="url(#paint0_linear_431_6844)"/>
<path fill-rule="evenodd" clip-rule="evenodd" d="M29.5233 6.28756C29.5015 6.28651 29.4807 6.28551 29.461 6.28448L7.35472 5.12594C7.10701 5.11291 6.85209 5.09951 6.63276 5.1059C6.388 5.11304 6.07959 5.14522 5.75915 5.28789C5.32507 5.48115 4.96332 5.80687 4.72575 6.21837C4.55036 6.52215 4.48612 6.8255 4.45344 7.06817C4.42415 7.28563 4.41084 7.54055 4.3979 7.78825L4.14286 12.6548C4.12983 12.9025 4.11642 13.1574 4.12282 13.3767C4.12996 13.6215 4.16214 13.9299 4.30481 14.2503C4.49807 14.6844 4.82379 15.0461 5.23529 15.2837C5.53907 15.4591 5.84242 15.5233 6.08509 15.556C6.30256 15.5853 6.55749 15.5986 6.8052 15.6116L28.9114 16.7701C28.9312 16.7711 28.952 16.7723 28.9737 16.7735C29.1952 16.7861 29.5165 16.8043 29.8326 16.7317C30.1045 16.6693 30.3624 16.5568 30.5932 16.4C30.8614 16.2178 31.0666 15.9699 31.2081 15.799C31.222 15.7822 31.2353 15.7661 31.248 15.751L33.1711 13.4485C33.1898 13.426 33.2098 13.4025 33.2307 13.3778C33.4377 13.1329 33.7374 12.7786 33.8756 12.3466C33.994 11.9768 34.0146 11.5827 33.9356 11.2026C33.8432 10.7586 33.5823 10.3749 33.4019 10.1097C33.3837 10.083 33.3664 10.0574 33.3501 10.0332L31.6782 7.54224C31.6672 7.52583 31.6556 7.50849 31.6435 7.49034C31.5207 7.30561 31.3425 7.03759 31.0948 6.82833C30.8817 6.64829 30.6369 6.50945 30.373 6.4189C30.0663 6.31366 29.7448 6.29821 29.5233 6.28756Z" fill="url(#paint1_linear_431_6844)"/>
<defs>
<linearGradient id="paint0_linear_431_6844" x1="15.861" y1="16.033" x2="16.2449" y2="27.0263" gradientUnits="userSpaceOnUse">
<stop stop-color="#F9DC17"/>
<stop offset="1" stop-color="#FBBD00"/>
</linearGradient>
<linearGradient id="paint1_linear_431_6844" x1="19.7088" y1="7.02511" x2="19.1331" y2="18.01" gradientUnits="userSpaceOnUse">
<stop stop-color="#F9DC17"/>
<stop offset="1" stop-color="#FBBD00"/>
</linearGradient>
</defs>
</svg>
