<svg width="36" height="36" viewBox="0 0 36 36" fill="none" xmlns="http://www.w3.org/2000/svg">
<mask id="mask0_352_5277" style="mask-type:alpha" maskUnits="userSpaceOnUse" x="3" y="1" width="30" height="34">
<path d="M13.2 3.77129C14.9487 2.7617 15.823 2.2569 16.7525 2.05932C17.575 1.8845 18.425 1.8845 19.2475 2.05932C20.177 2.2569 21.0513 2.7617 22.8 3.77129L27.9224 6.72872C29.6711 7.73831 30.5454 8.24311 31.1813 8.94932C31.7439 9.57418 32.1689 10.3103 32.4288 11.11C32.7224 12.0138 32.7224 13.0234 32.7224 15.0426V20.9574C32.7224 22.9766 32.7224 23.9862 32.4288 24.89C32.1689 25.6897 31.7439 26.4258 31.1813 27.0507C30.5454 27.7569 29.6711 28.2617 27.9224 29.2713L22.8 32.2287C21.0514 33.2383 20.177 33.7431 19.2475 33.9407C18.425 34.1155 17.575 34.1155 16.7525 33.9407C15.823 33.7431 14.9487 33.2383 13.2 32.2287L8.07759 29.2713C6.32893 28.2617 5.4546 27.7569 4.81872 27.0507C4.25609 26.4258 3.83108 25.6897 3.57125 24.89C3.27759 23.9862 3.27759 22.9766 3.27759 20.9574V15.0426C3.27759 13.0234 3.27759 12.0138 3.57125 11.11C3.83108 10.3103 4.25609 9.57418 4.81872 8.94932C5.4546 8.24311 6.32893 7.73831 8.07758 6.72872L13.2 3.77129Z" fill="url(#paint0_linear_352_5277)"/>
</mask>
<g mask="url(#mask0_352_5277)">
<path d="M18 1L32.7224 9.5V26.5L18 35L3.27759 26.5V9.5L18 1Z" fill="url(#paint1_linear_352_5277)"/>
<path d="M18 1L28.37 6.55537C29.9494 7.40145 30.739 7.82449 31.0626 8.32615C31.3472 8.76752 31.3852 9.24929 31.1712 9.70377C30.928 10.2203 30.2082 10.6831 28.7686 11.6085L25.4375 13.75L23.4521 14.7427C21.5187 15.7094 20.5519 16.1928 19.4659 16.3768C18.5088 16.539 17.4912 16.539 16.5341 16.3768C15.448 16.1928 14.4813 15.7094 12.5479 14.7427L10.5625 13.75L7.23132 11.6085C5.79172 10.6831 5.07192 10.2203 4.82873 9.70378C4.61476 9.24929 4.65277 8.76753 4.9374 8.32616C5.26092 7.82449 6.05059 7.40145 7.62994 6.55537L18 1Z" fill="url(#paint2_linear_352_5277)"/>
<circle cx="2.125" cy="2.125" r="2.125" transform="matrix(0.866025 0.5 -0.866025 0.5 18 7.375)" fill="#C11313"/>
<path d="M3.125 12.2679C3.125 11.0091 3.97001 10.4537 5.05767 10.9975L5.68661 11.312C8.93159 12.9345 12.189 14.8761 15.4253 17.1166C16.607 17.9346 17.5334 19.5658 17.6221 20.9844L17.6385 21.2473C17.8792 25.0979 17.8804 28.8259 17.6421 32.4002L17.6191 32.7448C17.5346 34.0119 16.5777 34.472 15.4351 33.7949L3.125 26.5V12.2679Z" fill="url(#paint3_linear_352_5277)"/>
<circle cx="2.125" cy="2.125" r="2.125" transform="matrix(0.866025 0.5 -2.20305e-08 1 5.11789 12.6875)" fill="#131313"/>
<circle cx="2.125" cy="2.125" r="2.125" transform="matrix(0.866025 0.5 -2.20305e-08 1 12.4791 25.4375)" fill="#131313"/>
<path d="M18.3779 20.9844C18.4666 19.5658 19.393 17.9346 20.5747 17.1166C23.811 14.8761 27.0684 12.9345 30.3134 11.312L30.9423 10.9976C32.03 10.4537 32.875 11.0091 32.875 12.2679V26.5L20.5649 33.7949C19.4223 34.472 18.4654 34.0119 18.3809 32.7448L18.3579 32.4002C18.1196 28.8258 18.1208 25.0979 18.3615 21.2473L18.3779 20.9844Z" fill="url(#paint4_linear_352_5277)"/>
<path d="M27.2015 16.9375C27.2015 18.1111 28.0255 18.5868 29.0418 18C30.0582 17.4132 30.8821 15.9861 30.8821 14.8125C30.8821 13.6389 30.0582 13.1632 29.0418 13.75C28.0255 14.3368 27.2015 15.7639 27.2015 16.9375Z" fill="#292929"/>
<path d="M23.5209 23.3125C23.5209 24.4861 24.3448 24.9618 25.3612 24.375C26.3776 23.7882 27.2015 22.3611 27.2015 21.1875C27.2015 20.0139 26.3776 19.5382 25.3612 20.125C24.3448 20.7118 23.5209 22.1389 23.5209 23.3125Z" fill="#292929"/>
<path d="M19.8403 29.6875C19.8403 30.8611 20.6642 31.3368 21.6806 30.75C22.697 30.1632 23.5209 28.7361 23.5209 27.5625C23.5209 26.3889 22.697 25.9132 21.6806 26.5C20.6642 27.0868 19.8403 28.5139 19.8403 29.6875Z" fill="#292929"/>
</g>
<defs>
<linearGradient id="paint0_linear_352_5277" x1="25.3612" y1="13.75" x2="32.7224" y2="26.5" gradientUnits="userSpaceOnUse">
<stop stop-color="#B2B2B2"/>
<stop offset="1" stop-color="#D6D6D6"/>
</linearGradient>
<linearGradient id="paint1_linear_352_5277" x1="18" y1="1" x2="18" y2="35" gradientUnits="userSpaceOnUse">
<stop stop-color="#B2B2B2"/>
<stop offset="0.161236" stop-color="#A8A8A8"/>
<stop offset="0.29678" stop-color="#E1E1E1"/>
<stop offset="0.3939" stop-color="#E7E7E7"/>
<stop offset="0.531552" stop-color="#E9E9E9"/>
<stop offset="0.724821" stop-color="#CBCDCD"/>
<stop offset="0.935965" stop-color="#D8D8D8"/>
<stop offset="0.982669" stop-color="#B5B5B5"/>
</linearGradient>
<linearGradient id="paint2_linear_352_5277" x1="18" y1="-0.0625" x2="18" y2="18" gradientUnits="userSpaceOnUse">
<stop stop-color="#E2E3E3"/>
<stop offset="1" stop-color="#DFE0E0"/>
</linearGradient>
<linearGradient id="paint3_linear_352_5277" x1="10.6388" y1="13.75" x2="10.6388" y2="30.75" gradientUnits="userSpaceOnUse">
<stop stop-color="#CBCCCC"/>
<stop offset="1" stop-color="#C5C6C6"/>
</linearGradient>
<linearGradient id="paint4_linear_352_5277" x1="25.3612" y1="13.75" x2="25.3612" y2="30.75" gradientUnits="userSpaceOnUse">
<stop stop-color="#A8A8A8"/>
<stop offset="1" stop-color="#A7A8A8"/>
</linearGradient>
</defs>
</svg>
