<svg width="36" height="36" viewBox="0 0 36 36" fill="none" xmlns="http://www.w3.org/2000/svg">
<g clip-path="url(#clip0_315_5485)">
<path d="M30.701 20.0878C29.4633 20.0878 28.3417 20.3586 27.4521 20.8227C27.104 20.1652 26.7945 19.585 26.7172 19.1209C26.6785 18.618 26.5625 18.3473 26.6785 17.7284C26.7172 17.1096 27.1426 16.2587 27.1426 16.22C27.1426 16.1813 27.104 15.8332 26.3691 15.8332C25.6342 15.8332 25.0153 15.9492 24.9766 16.1813C24.938 16.336 24.7446 16.8002 24.7059 17.2643C24.5899 17.9218 23.2361 20.2425 22.5012 21.4802C22.2692 20.9774 22.0371 20.5906 21.9984 20.2425C21.9597 19.7397 21.8437 19.469 21.9597 18.8501C21.9984 18.2313 22.4239 17.3803 22.4239 17.3417C22.4239 17.303 22.3852 16.9549 21.6503 16.9549C20.9154 16.9549 20.2966 17.0709 20.2579 17.303C20.2192 17.5351 20.1032 17.9218 19.9871 18.386C19.8324 18.8501 18.0919 22.7179 17.6278 23.7236C17.3957 24.2264 17.1636 24.6905 17.0476 24.9613V25C16.9316 25.232 16.8155 25.3867 16.8155 25.3867C16.6995 25.5415 16.5835 25.7349 16.5448 25.7349C16.5061 25.7349 16.4287 25.2707 16.5448 24.6132C16.8155 23.2594 17.4344 21.1321 17.4344 21.0935C17.4344 21.0548 17.5504 20.7067 17.0476 20.4746C16.5448 20.3199 16.3901 20.5906 16.3127 20.5906C16.2353 20.5906 16.274 20.7067 16.274 20.7067C16.274 20.7067 16.8542 18.3473 15.191 18.3473C14.1854 18.3473 12.7156 19.469 11.9807 20.4746C11.5166 20.7067 10.5883 21.2482 9.58268 21.751C9.19589 21.9831 8.80911 22.2151 8.42233 22.3698C8.42233 22.3698 8.38365 22.3312 8.38365 22.2538C6.37238 20.1265 2.65926 18.618 2.81397 15.6785C2.85265 14.5955 3.20076 11.8493 9.93078 8.56168C15.4231 5.81552 19.8711 6.58909 20.606 8.29093C21.689 10.689 18.2466 15.137 12.5222 15.7558C10.3176 15.9879 9.1959 15.137 8.92515 14.8662C8.6544 14.5181 8.57704 14.5181 8.46101 14.5955C8.30629 14.7115 8.42233 14.9823 8.46101 15.1757C8.61572 15.6398 9.35061 16.4134 10.5496 16.8002C11.6326 17.1483 14.1467 17.303 17.241 16.1426C20.722 14.7889 23.4295 11.0758 22.6173 7.94283C21.805 4.80988 16.4287 3.57218 11.4779 5.35138C8.49969 6.43437 5.28939 8.05886 3.00736 10.2248C0.261204 12.8163 -0.125579 14.9823 0.0291343 15.9492C0.647987 19.2756 5.25071 21.4029 7.02991 23.0274C6.91387 23.066 6.8752 23.1434 6.79784 23.1434C5.90824 23.6075 2.42719 25.3867 1.53759 27.3593C0.531953 29.564 1.44394 31.0305 2.42719 31.3045C4.78657 31.9621 7.18462 30.8017 8.49969 28.8291C9.77607 26.9339 9.62136 24.3811 9.07986 23.2594V23.2208C9.31193 23.1047 9.58268 22.95 9.81475 22.834C10.2789 22.5632 10.7044 22.3312 11.0911 22.0991C10.8591 22.7179 10.7044 23.4528 10.627 24.4971C10.511 25.7349 11.0138 27.3593 11.71 27.9782C11.9807 28.2489 12.3288 28.2489 12.5609 28.2489C13.3345 28.2489 13.6826 27.6301 14.0694 26.8565C14.5335 25.8896 14.959 24.8453 14.959 24.8453C14.959 24.8453 14.4561 27.7461 15.8486 27.7461C16.3514 27.7461 16.9316 27.0886 17.125 26.7405C17.357 26.3924 17.125 26.7405 17.1636 26.7018C17.2023 26.5858 17.2797 26.5858 17.2797 26.5858C17.5117 26.199 17.9372 25.4254 18.6721 23.9943C19.5617 22.2151 20.4513 19.9331 20.4513 19.9331C20.4513 19.9331 20.49 20.5133 20.7994 21.4029C20.9541 21.9057 21.3022 22.5246 21.5343 23.1047C21.3022 23.3755 21.1862 23.5689 21.1862 23.5689C21.0701 23.8009 20.9154 23.9943 20.6834 24.3038C19.9485 25.1547 19.0975 26.1603 18.9815 26.4311C18.8655 26.7792 18.8655 27.0112 19.1362 27.2046C19.2909 27.3593 19.639 27.3593 20.0258 27.3593C20.6447 27.3207 21.1475 27.1273 21.3022 27.0886C21.6503 26.9726 22.0371 26.7405 22.4239 26.4697C23.1588 25.9669 23.5456 25.232 23.5069 24.2264C23.5069 23.6462 23.2748 23.1434 23.1201 22.6406C23.1588 22.5246 23.2361 22.4859 23.2748 22.3698C24.3965 20.7453 25.2474 18.9275 25.2474 18.9275C25.2474 18.9275 25.2861 19.5076 25.5955 20.3972C25.7115 20.8614 25.9823 21.3642 26.2144 21.867C25.1314 22.7179 24.5125 23.7236 24.3191 24.3424C23.9323 25.5028 24.2031 26.083 24.8219 26.199C25.0927 26.2377 25.4795 26.1603 25.7889 25.9669C26.1757 25.8509 26.5625 25.6188 27.0266 25.3481C27.7615 24.8453 28.419 24.1104 28.3803 23.1047C28.3803 22.6406 28.2643 22.2151 28.1096 21.8283C28.9992 21.4416 30.1209 21.2482 31.5906 21.4416C34.7236 21.8283 35.3424 23.7623 35.2264 24.5745C35.1104 25.4254 34.4528 25.8509 34.2208 25.9669C33.9887 26.083 33.95 26.1216 33.95 26.2377C33.95 26.3924 34.0661 26.3537 34.2981 26.3537C34.5689 26.315 35.9226 25.6962 36 24.149C35.7292 22.1764 33.8727 20.0878 30.701 20.0878ZM6.52709 28.2103C5.52145 29.3319 4.05168 29.7961 3.43283 29.3706C2.77529 28.9838 3.04604 27.282 4.28375 26.1216C5.05732 25.3867 6.06295 24.7292 6.6818 24.3424C6.83652 24.2264 7.06859 24.1104 7.30066 23.9557C7.33934 23.9557 7.33934 23.917 7.33934 23.917C7.37801 23.8783 7.45537 23.8783 7.49405 23.8009C8.1129 25.5415 7.64876 26.9726 6.52709 28.2103ZM14.108 23.066C13.7599 23.9557 12.9864 26.199 12.5222 26.083C12.1354 25.9669 11.9034 24.3038 12.4836 22.6019C12.7543 21.751 13.3732 20.7453 13.7213 20.3586C14.3014 19.7397 14.8816 19.5076 15.075 19.7784C15.191 20.0878 14.3401 22.4859 14.108 23.066ZM20.3353 26.0443C20.1805 26.083 20.0645 26.1603 19.9871 26.1603C19.9098 26.1603 20.0258 26.0443 20.0258 26.0443C20.0258 26.0443 20.7994 25.1934 21.1088 24.8066C21.2635 24.5745 21.4956 24.3038 21.7277 24.033V24.149C21.7663 25.0773 20.7607 25.7349 20.3353 26.0443ZM25.1314 24.9613C25.0153 24.9226 25.0153 24.6132 25.4021 23.8009C25.5568 23.4528 25.9049 22.95 26.4851 22.4085C26.5238 22.6406 26.6011 22.7953 26.6011 23.0274C26.6011 24.3038 25.6729 24.7292 25.1314 24.9613Z" fill="url(#paint0_linear_315_5485)"/>
</g>
<defs>
<linearGradient id="paint0_linear_315_5485" x1="18" y1="4.533" x2="18" y2="31.4893" gradientUnits="userSpaceOnUse">
<stop stop-color="#FF8DCF"/>
<stop offset="1" stop-color="#E8457C"/>
</linearGradient>
<clipPath id="clip0_315_5485">
<rect width="36" height="36" fill="white"/>
</clipPath>
</defs>
</svg>
