<svg width="36" height="36" viewBox="0 0 36 36" fill="none" xmlns="http://www.w3.org/2000/svg">
<path d="M20.5 31.25V4.75H28.2499C29.0475 4.74998 29.7207 4.74997 30.2722 4.79503C30.8497 4.84221 31.403 4.94498 31.9295 5.21322C32.7291 5.62069 33.3793 6.27085 33.7868 7.07054C34.055 7.59699 34.1578 8.15026 34.205 8.72782C34.25 9.27931 34.25 9.95249 34.25 10.7501V25.2499C34.25 26.0475 34.25 26.7207 34.205 27.2722C34.1578 27.8497 34.055 28.403 33.7868 28.9295C33.3793 29.7291 32.7291 30.3793 31.9295 30.7868C31.403 31.055 30.8497 31.1578 30.2722 31.205C29.7207 31.25 29.0475 31.25 28.2499 31.25H20.5Z" fill="#D9D9D9"/>
<path d="M20.5 31.25V4.75H28.2499C29.0475 4.74998 29.7207 4.74997 30.2722 4.79503C30.8497 4.84221 31.403 4.94498 31.9295 5.21322C32.7291 5.62069 33.3793 6.27085 33.7868 7.07054C34.055 7.59699 34.1578 8.15026 34.205 8.72782C34.25 9.27931 34.25 9.95249 34.25 10.7501V25.2499C34.25 26.0475 34.25 26.7207 34.205 27.2722C34.1578 27.8497 34.055 28.403 33.7868 28.9295C33.3793 29.7291 32.7291 30.3793 31.9295 30.7868C31.403 31.055 30.8497 31.1578 30.2722 31.205C29.7207 31.25 29.0475 31.25 28.2499 31.25H20.5Z" fill="url(#paint0_linear_280_4565)"/>
<path d="M26.3545 15.216H23.5725V13.5H31.1775V15.216H28.3955V22.782H26.3545V15.216Z" fill="white"/>
<path d="M15.5 4.75V31.25H7.75012C6.95255 31.25 6.27931 31.25 5.72782 31.205C5.15026 31.1578 4.59699 31.055 4.07054 30.7868C3.27085 30.3793 2.62069 29.7291 2.21322 28.9295C1.94498 28.403 1.84221 27.8497 1.79503 27.2722C1.74997 26.7207 1.74998 26.0475 1.75 25.2499V10.7502C1.74998 9.95255 1.74997 9.27932 1.79503 8.72782C1.84221 8.15026 1.94498 7.59699 2.21322 7.07054C2.62069 6.27085 3.27085 5.62069 4.07054 5.21322C4.59699 4.94498 5.15026 4.84221 5.72782 4.79503C6.27933 4.74997 6.95253 4.74998 7.75013 4.75H15.5Z" fill="url(#paint1_linear_280_4565)"/>
<path d="M7.60451 15.216H4.82251V13.5H12.4275V15.216H9.64551V22.782H7.60451V15.216Z" fill="#4E5963"/>
<path fill-rule="evenodd" clip-rule="evenodd" d="M18 1.75C18.6904 1.75 19.25 2.30964 19.25 3V33C19.25 33.6904 18.6904 34.25 18 34.25C17.3096 34.25 16.75 33.6904 16.75 33V3C16.75 2.30964 17.3096 1.75 18 1.75Z" fill="#47E2FC"/>
<defs>
<linearGradient id="paint0_linear_280_4565" x1="27.375" y1="4.75" x2="27.375" y2="31.25" gradientUnits="userSpaceOnUse">
<stop stop-color="#888F97"/>
<stop offset="1" stop-color="#4B5761"/>
</linearGradient>
<linearGradient id="paint1_linear_280_4565" x1="9.70343" y1="4.75" x2="9.70343" y2="31.25" gradientUnits="userSpaceOnUse">
<stop stop-color="#EAEBEF"/>
<stop offset="1" stop-color="#C8CED4"/>
</linearGradient>
</defs>
</svg>
