<svg width="36" height="36" viewBox="0 0 36 36" fill="none" xmlns="http://www.w3.org/2000/svg">
<path d="M18 33C26.2843 33 33 26.2843 33 18C33 9.71573 26.2843 3 18 3C9.71573 3 3 9.71573 3 18C3 26.2843 9.71573 33 18 33Z" fill="url(#paint0_linear_137_5762)"/>
<path fill-rule="evenodd" clip-rule="evenodd" d="M18 4.25C10.4061 4.25 4.25 10.4061 4.25 18C4.25 25.5939 10.4061 31.75 18 31.75C25.5939 31.75 31.75 25.5939 31.75 18C31.75 10.4061 25.5939 4.25 18 4.25ZM1.75 18C1.75 9.02537 9.02537 1.75 18 1.75C26.9746 1.75 34.25 9.02537 34.25 18C34.25 26.9746 26.9746 34.25 18 34.25C9.02537 34.25 1.75 26.9746 1.75 18Z" fill="url(#paint1_linear_137_5762)"/>
<path fill-rule="evenodd" clip-rule="evenodd" d="M25.7071 10.2929C26.0976 10.6834 26.0976 11.3166 25.7071 11.7071L18.7071 18.7071C18.3166 19.0976 17.6834 19.0976 17.2929 18.7071C16.9024 18.3166 16.9024 17.6834 17.2929 17.2929L24.2929 10.2929C24.6834 9.90237 25.3166 9.90237 25.7071 10.2929Z" fill="#43474A"/>
<path fill-rule="evenodd" clip-rule="evenodd" d="M18 17.25C18.4142 17.25 18.75 17.5858 18.75 18V28C18.75 28.4142 18.4142 28.75 18 28.75C17.5858 28.75 17.25 28.4142 17.25 28V18C17.25 17.5858 17.5858 17.25 18 17.25Z" fill="#D83B01"/>
<path fill-rule="evenodd" clip-rule="evenodd" d="M10.882 14.441C11.1907 13.8235 11.9415 13.5732 12.559 13.882L18.559 16.882C19.1765 17.1907 19.4268 17.9415 19.118 18.559C18.8093 19.1765 18.0585 19.4268 17.441 19.118L11.441 16.118C10.8235 15.8093 10.5732 15.0585 10.882 14.441Z" fill="#43474A"/>
<path d="M20 18C20 19.1046 19.1046 20 18 20C16.8954 20 16 19.1046 16 18C16 16.8954 16.8954 16 18 16C19.1046 16 20 16.8954 20 18Z" fill="#1D1F20"/>
<defs>
<linearGradient id="paint0_linear_137_5762" x1="18" y1="3" x2="18" y2="33" gradientUnits="userSpaceOnUse">
<stop stop-color="#F8F8F9"/>
<stop offset="1" stop-color="#CFD3D7"/>
</linearGradient>
<linearGradient id="paint1_linear_137_5762" x1="18" y1="3" x2="18" y2="33" gradientUnits="userSpaceOnUse">
<stop stop-color="#F44E59"/>
<stop offset="1" stop-color="#E62836"/>
</linearGradient>
</defs>
</svg>
