<svg width="36" height="36" viewBox="0 0 36 36" fill="none" xmlns="http://www.w3.org/2000/svg">
<path fill-rule="evenodd" clip-rule="evenodd" d="M1.5 15C1.5 10.8579 4.85786 7.5 9 7.5H21C25.1421 7.5 28.5 10.8579 28.5 15C28.5 19.1421 25.1421 22.5 21 22.5H9C4.85786 22.5 1.5 19.1421 1.5 15ZM9 10.5C6.51472 10.5 4.5 12.5147 4.5 15C4.5 17.4853 6.51472 19.5 9 19.5H21C23.4853 19.5 25.5 17.4853 25.5 15C25.5 12.5147 23.4853 10.5 21 10.5H9Z" fill="#1A76D7"/>
<path fill-rule="evenodd" clip-rule="evenodd" d="M1.5 15C1.5 10.8579 4.85786 7.5 9 7.5H21C25.1421 7.5 28.5 10.8579 28.5 15C28.5 19.1421 25.1421 22.5 21 22.5H9C4.85786 22.5 1.5 19.1421 1.5 15ZM9 10.5C6.51472 10.5 4.5 12.5147 4.5 15C4.5 17.4853 6.51472 19.5 9 19.5H21C23.4853 19.5 25.5 17.4853 25.5 15C25.5 12.5147 23.4853 10.5 21 10.5H9Z" fill="url(#paint0_radial_241_25665)" fill-opacity="0.54" style="mix-blend-mode:overlay"/>
<path fill-rule="evenodd" clip-rule="evenodd" d="M15 16.5C12.5147 16.5 10.5 18.5147 10.5 21C10.5 23.4853 12.5147 25.5 15 25.5H27C29.4853 25.5 31.5 23.4853 31.5 21C31.5 18.5147 29.4853 16.5 27 16.5H15ZM7.5 21C7.5 16.8579 10.8579 13.5 15 13.5H27C31.1421 13.5 34.5 16.8579 34.5 21C34.5 25.1421 31.1421 28.5 27 28.5H15C10.8579 28.5 7.5 25.1421 7.5 21Z" fill="#22A4E5"/>
<path fill-rule="evenodd" clip-rule="evenodd" d="M15 16.5C12.5147 16.5 10.5 18.5147 10.5 21C10.5 23.4853 12.5147 25.5 15 25.5H27C29.4853 25.5 31.5 23.4853 31.5 21C31.5 18.5147 29.4853 16.5 27 16.5H15ZM7.5 21C7.5 16.8579 10.8579 13.5 15 13.5H27C31.1421 13.5 34.5 16.8579 34.5 21C34.5 25.1421 31.1421 28.5 27 28.5H15C10.8579 28.5 7.5 25.1421 7.5 21Z" fill="url(#paint1_radial_241_25665)" fill-opacity="0.54" style="mix-blend-mode:overlay"/>
<path d="M16 22.5H8.99995C5.19688 22.5 2.05493 19.6694 1.56604 16H4.61146C5.06619 18.004 6.85837 19.5 8.99995 19.5H16V22.5Z" fill="#1A76D7"/>
<path d="M26.4509 27.683C26.5889 27.4438 26.8947 27.3619 27.1339 27.5L28.8659 28.5C29.1051 28.638 29.187 28.9438 29.0489 29.183L28.2989 30.482C28.1609 30.7212 27.8152 30.7773 27.5696 30.9037C27.4873 30.9461 27.4157 31.0119 27.3659 31.0981C27.3162 31.1843 27.295 31.2791 27.2994 31.3717C27.3127 31.6475 27.437 31.9749 27.2989 32.2141L27.0489 32.6471C26.9109 32.8862 26.5652 32.9423 26.3196 33.0687C26.2373 33.1111 26.1657 33.1769 26.1159 33.2631C26.0662 33.3493 26.045 33.4442 26.0494 33.5367C26.0627 33.8126 26.187 34.14 26.0489 34.3791L25.7035 34.9775C25.6088 35.1416 25.4295 35.238 25.2405 35.2266L24.5507 35.1852C24.4732 35.1806 24.3979 35.158 24.3307 35.1192L23.6691 34.7372C23.6019 34.6984 23.5446 34.6444 23.5018 34.5797L23.1211 34.003C23.0168 33.845 23.0107 33.6416 23.1054 33.4776L26.4509 27.683Z" fill="#FDB700"/>
<path d="M26.4509 27.683C26.5889 27.4438 26.8947 27.3619 27.1339 27.5L28.8659 28.5C29.1051 28.638 29.187 28.9438 29.0489 29.183L28.2989 30.482C28.1609 30.7212 27.8152 30.7773 27.5696 30.9037C27.4873 30.9461 27.4157 31.0119 27.3659 31.0981C27.3162 31.1843 27.295 31.2791 27.2994 31.3717C27.3127 31.6475 27.437 31.9749 27.2989 32.2141L27.0489 32.6471C26.9109 32.8862 26.5652 32.9423 26.3196 33.0687C26.2373 33.1111 26.1657 33.1769 26.1159 33.2631C26.0662 33.3493 26.045 33.4442 26.0494 33.5367C26.0627 33.8126 26.187 34.14 26.0489 34.3791L25.7035 34.9775C25.6088 35.1416 25.4295 35.238 25.2405 35.2266L24.5507 35.1852C24.4732 35.1806 24.3979 35.158 24.3307 35.1192L23.6691 34.7372C23.6019 34.6984 23.5446 34.6444 23.5018 34.5797L23.1211 34.003C23.0168 33.845 23.0107 33.6416 23.1054 33.4776L26.4509 27.683Z" fill="url(#paint2_radial_241_25665)" fill-opacity="0.53" style="mix-blend-mode:overlay"/>
<path fill-rule="evenodd" clip-rule="evenodd" d="M32 21.0718C29.8477 19.8292 27.0955 20.5666 25.8529 22.7189L24.2457 25.5026C23.8907 26.1175 24.1014 26.9039 24.7163 27.2589L30.2836 30.4732C30.8986 30.8282 31.6849 30.6175 32.0399 30.0026L33.6471 27.2189C34.8897 25.0666 34.1523 22.3144 32 21.0718ZM29.75 24.9689C30.4675 25.3831 31.3848 25.1373 31.7991 24.4199C32.2133 23.7024 31.9675 22.785 31.25 22.3708C30.5326 21.9566 29.6152 22.2024 29.201 22.9199C28.7868 23.6373 29.0326 24.5547 29.75 24.9689Z" fill="url(#paint3_linear_241_25665)"/>
<path d="M31.799 24.4199C31.3848 25.1373 30.4674 25.3831 29.75 24.9689C29.0325 24.5547 28.7867 23.6373 29.2009 22.9199C29.6151 22.2024 30.5325 21.9566 31.25 22.3708C31.9674 22.785 32.2132 23.7024 31.799 24.4199Z" fill="white"/>
<defs>
<radialGradient id="paint0_radial_241_25665" cx="0" cy="0" r="1" gradientUnits="userSpaceOnUse" gradientTransform="translate(27 15) rotate(180) scale(14.5 8.20254)">
<stop/>
<stop offset="1" stop-opacity="0"/>
</radialGradient>
<radialGradient id="paint1_radial_241_25665" cx="0" cy="0" r="1" gradientUnits="userSpaceOnUse" gradientTransform="translate(9 21) scale(9.5 5.37408)">
<stop/>
<stop offset="1" stop-opacity="0"/>
</radialGradient>
<radialGradient id="paint2_radial_241_25665" cx="0" cy="0" r="1" gradientUnits="userSpaceOnUse" gradientTransform="translate(27.3651 29.0997) rotate(120) scale(2.53968 4.20053)">
<stop/>
<stop offset="1" stop-opacity="0"/>
</radialGradient>
<linearGradient id="paint3_linear_241_25665" x1="32.05" y1="20.9852" x2="28.25" y2="27.567" gradientUnits="userSpaceOnUse">
<stop stop-color="#F9DC17"/>
<stop offset="1" stop-color="#FBBD00"/>
</linearGradient>
</defs>
</svg>
