<svg width="36" height="36" viewBox="0 0 36 36" fill="none" xmlns="http://www.w3.org/2000/svg">
<path fill-rule="evenodd" clip-rule="evenodd" d="M1.5 15C1.5 10.8579 4.85786 7.5 9 7.5H21C25.1421 7.5 28.5 10.8579 28.5 15C28.5 19.1421 25.1421 22.5 21 22.5H9C4.85786 22.5 1.5 19.1421 1.5 15ZM9 10.5C6.51472 10.5 4.5 12.5147 4.5 15C4.5 17.4853 6.51472 19.5 9 19.5H21C23.4853 19.5 25.5 17.4853 25.5 15C25.5 12.5147 23.4853 10.5 21 10.5H9Z" fill="#1A76D7"/>
<path fill-rule="evenodd" clip-rule="evenodd" d="M1.5 15C1.5 10.8579 4.85786 7.5 9 7.5H21C25.1421 7.5 28.5 10.8579 28.5 15C28.5 19.1421 25.1421 22.5 21 22.5H9C4.85786 22.5 1.5 19.1421 1.5 15ZM9 10.5C6.51472 10.5 4.5 12.5147 4.5 15C4.5 17.4853 6.51472 19.5 9 19.5H21C23.4853 19.5 25.5 17.4853 25.5 15C25.5 12.5147 23.4853 10.5 21 10.5H9Z" fill="url(#paint0_radial_241_22418)" fill-opacity="0.54" style="mix-blend-mode:overlay"/>
<path fill-rule="evenodd" clip-rule="evenodd" d="M15 16.5C12.5147 16.5 10.5 18.5147 10.5 21C10.5 23.4853 12.5147 25.5 15 25.5H27C29.4853 25.5 31.5 23.4853 31.5 21C31.5 18.5147 29.4853 16.5 27 16.5H15ZM7.5 21C7.5 16.8579 10.8579 13.5 15 13.5H27C31.1421 13.5 34.5 16.8579 34.5 21C34.5 25.1421 31.1421 28.5 27 28.5H15C10.8579 28.5 7.5 25.1421 7.5 21Z" fill="#22A4E5"/>
<path fill-rule="evenodd" clip-rule="evenodd" d="M15 16.5C12.5147 16.5 10.5 18.5147 10.5 21C10.5 23.4853 12.5147 25.5 15 25.5H27C29.4853 25.5 31.5 23.4853 31.5 21C31.5 18.5147 29.4853 16.5 27 16.5H15ZM7.5 21C7.5 16.8579 10.8579 13.5 15 13.5H27C31.1421 13.5 34.5 16.8579 34.5 21C34.5 25.1421 31.1421 28.5 27 28.5H15C10.8579 28.5 7.5 25.1421 7.5 21Z" fill="url(#paint1_radial_241_22418)" fill-opacity="0.54" style="mix-blend-mode:overlay"/>
<path d="M16 22.5H8.99998C5.19691 22.5 2.05496 19.6694 1.56607 16H4.61149C5.06622 18.004 6.8584 19.5 8.99998 19.5H16V22.5Z" fill="#1A76D7"/>
<path d="M25 25C25 23.3431 26.3431 22 28 22C29.6569 22 31 23.3431 31 25V28H25V25Z" fill="white"/>
<path fill-rule="evenodd" clip-rule="evenodd" d="M24.25 25C24.25 22.9289 25.9289 21.25 28 21.25C30.0711 21.25 31.75 22.9289 31.75 25V28.75H24.25V25ZM28 22.75C26.7574 22.75 25.75 23.7574 25.75 25V27.25H30.25V25C30.25 23.7574 29.2426 22.75 28 22.75Z" fill="#B0C6DA"/>
<path fill-rule="evenodd" clip-rule="evenodd" d="M24.25 25C24.25 22.9289 25.9289 21.25 28 21.25C30.0711 21.25 31.75 22.9289 31.75 25V28.75H24.25V25ZM28 22.75C26.7574 22.75 25.75 23.7574 25.75 25V27.25H30.25V25C30.25 23.7574 29.2426 22.75 28 22.75Z" fill="url(#paint2_radial_241_22418)" fill-opacity="0.8" style="mix-blend-mode:overlay"/>
<path d="M21.5 28C21.5 26.8954 22.3954 26 23.5 26H32.5C33.6046 26 34.5 26.8954 34.5 28V33C34.5 34.1046 33.6046 35 32.5 35H23.5C22.3954 35 21.5 34.1046 21.5 33V28Z" fill="#F9D700"/>
<path fill-rule="evenodd" clip-rule="evenodd" d="M28 28.75C28.4142 28.75 28.75 29.0858 28.75 29.5L28.75 31.5C28.75 31.9142 28.4142 32.25 28 32.25C27.5858 32.25 27.25 31.9142 27.25 31.5L27.25 29.5C27.25 29.0858 27.5858 28.75 28 28.75Z" fill="#39403B"/>
<defs>
<radialGradient id="paint0_radial_241_22418" cx="0" cy="0" r="1" gradientUnits="userSpaceOnUse" gradientTransform="translate(27 15) rotate(180) scale(14.5 8.20254)">
<stop/>
<stop offset="1" stop-opacity="0"/>
</radialGradient>
<radialGradient id="paint1_radial_241_22418" cx="0" cy="0" r="1" gradientUnits="userSpaceOnUse" gradientTransform="translate(9 21) scale(9.5 5.37408)">
<stop/>
<stop offset="1" stop-opacity="0"/>
</radialGradient>
<radialGradient id="paint2_radial_241_22418" cx="0" cy="0" r="1" gradientUnits="userSpaceOnUse" gradientTransform="translate(28 26.7813) rotate(-90) scale(2.95313 8.38927)">
<stop/>
<stop offset="1" stop-opacity="0"/>
</radialGradient>
</defs>
</svg>
